<svg width="82" height="82" viewBox="0 0 82 82" fill="none" xmlns="http://www.w3.org/2000/svg">
<g clip-path="url(#clip0_78_170)">
<path fill-rule="evenodd" clip-rule="evenodd" d="M41 0C18.3557 0 0 18.3557 0 41C0 63.6443 18.3557 82 41 82C63.6443 82 82 63.6443 82 41C82 18.3557 63.6443 0 41 0ZM8.2 41C8.2 32.3009 11.6557 23.9581 17.8069 17.8069C23.9581 11.6557 32.3009 8.2 41 8.2C49.6991 8.2 58.0419 11.6557 64.1931 17.8069C70.3443 23.9581 73.8 32.3009 73.8 41C73.8 49.6991 70.3443 58.0419 64.1931 64.1931C58.0419 70.3443 49.6991 73.8 41 73.8C32.3009 73.8 23.9581 70.3443 17.8069 64.1931C11.6557 58.0419 8.2 49.6991 8.2 41Z" fill="#2E7D32"/>
<path d="M54.6663 29.2183L35.8747 52.7815L27.333 42.0709" stroke="#2E7D32" stroke-width="9" stroke-linecap="round" stroke-linejoin="round"/>
</g>
<defs>
<clipPath id="clip0_78_170">
<rect width="82" height="82" fill="white"/>
</clipPath>
</defs>
</svg>
