<svg width="127" height="120" viewBox="0 0 127 120" fill="none" xmlns="http://www.w3.org/2000/svg">
<g clip-path="url(#clip0_109_58)">
<path d="M63.5038 66.4681L0 65.6899L63.5038 64.9117V66.4681Z" fill="#F1BB79"/>
<path d="M63.5038 64.9117L127 65.6899L63.5038 66.4681V64.9117Z" fill="#F1BB79"/>
<path d="M63.2482 64.958L123.175 42.8765L63.7593 66.4219L63.2482 64.958Z" fill="#F1BB79"/>
<path d="M63.0228 65.0889L112.15 22.8135L63.9772 66.2908L63.0228 65.0889Z" fill="#F1BB79"/>
<path d="M62.8575 65.297L95.2556 7.92041L64.1426 66.0828L62.8575 65.297Z" fill="#F1BB79"/>
<path d="M62.7672 65.5512L74.5286 0L64.2327 65.8286L62.7672 65.5512Z" fill="#F1BB79"/>
<path d="M62.7672 65.8286L52.4714 0L64.2327 65.5512L62.7672 65.8286Z" fill="#F1BB79"/>
<path d="M62.8575 66.0828L31.7519 7.92041L64.1426 65.297L62.8575 66.0828Z" fill="#F1BB79"/>
<path d="M63.0228 66.2908L14.8576 22.8135L63.9772 65.0889L63.0228 66.2908Z" fill="#F1BB79"/>
<path d="M63.2482 66.4219L3.83276 42.8765L63.7593 64.958L63.2482 66.4219Z" fill="#F1BB79"/>
<path d="M100.576 64.8963C100.396 51.5056 91.8287 39.0395 80.6911 33.0606C69.0049 26.7891 55.0341 27.182 43.8364 34.409C39.455 37.2366 35.6222 41.0041 32.7063 45.4497C29.0389 51.0433 26.7092 57.6231 26.1455 64.3955C26.4687 56.4366 29.1666 48.6009 33.7735 42.2754C41.7922 31.2578 54.8011 25.7104 67.8626 27.4825C72.3342 28.0911 76.708 29.5088 80.7212 31.6738C89.6417 36.4815 96.5708 44.9181 99.2537 55.1114C100.088 58.2934 100.531 61.591 100.576 64.8963Z" fill="#F1BB79"/>
<path d="M59.0698 89.9519H59.0547C56.9805 89.9519 55.0416 89.3047 53.1628 88.6806C52.2309 88.3724 51.2614 88.0488 50.307 87.8254C47.857 87.2398 45.1741 86.9085 41.5968 86.7467C40.2291 86.6851 38.8538 86.6543 37.486 86.6158C35.6072 86.5695 33.6683 86.5233 31.7519 86.4C30.4668 86.3153 29.2568 86.2382 28.1295 85.8453C26.386 85.2443 25.4316 83.9499 24.5147 82.7018C24.3419 82.4706 24.1765 82.2395 23.9962 82.0161C22.6209 80.244 21.2531 78.4565 19.9079 76.669L19.6448 76.33C19.3217 75.914 18.7731 75.1975 18.1493 74.3654L17.5556 73.5795C16.4433 72.1156 15.286 70.6055 14.7148 68.949C14.6697 68.8103 14.542 68.4482 14.7449 68.1015C14.9177 67.8087 15.2409 67.7162 15.3762 67.67C16.6613 67.2848 18.2545 67.5313 19.6223 68.3403C20.8398 69.0568 21.7341 70.0662 22.5156 71.0524C24.6575 73.7567 28.092 77.5397 33.1497 79.2039C36.8397 80.4212 40.9505 80.3673 44.9186 80.3133C46.0383 80.2979 47.1431 80.2825 48.2328 80.2979C49.1872 80.3288 49.3601 80.0899 49.3751 80.0514C49.4052 79.9898 49.3225 79.7817 49.1046 79.5891C48.5559 79.096 47.6917 78.8726 46.8575 78.6568C45.4446 78.2947 38.3427 76.3223 36.7645 72.9092C36.3737 72.0617 36.5241 71.191 37.1403 70.7288C37.7415 70.2819 38.5532 70.3589 39.2596 70.4899C47.331 72.0077 53.2605 74.5811 56.8979 78.1483C59.3854 80.5907 62.121 84.6048 61.6475 87.9101C61.5348 88.6883 61.1815 89.2739 60.6329 89.6052C60.1219 89.9134 59.4906 89.9519 59.0622 89.9519H59.0698ZM15.7219 68.6639C16.278 70.1817 17.3452 71.5763 18.3748 72.9246L18.976 73.7182C19.5922 74.5426 20.1408 75.2591 20.464 75.6674L20.7345 76.0219C22.0723 77.8093 23.44 79.5891 24.8078 81.3612C24.9882 81.5923 25.161 81.8312 25.3414 82.07C26.2056 83.2411 27.0173 84.3506 28.4602 84.8514C29.4597 85.1981 30.602 85.2674 31.6993 85.3445C33.7134 85.4755 35.6448 85.5217 37.5085 85.5679C38.8838 85.5987 40.2666 85.6373 41.6419 85.6989C45.2868 85.8607 48.0299 86.2074 50.54 86.8084C51.532 87.0472 52.524 87.3708 53.4784 87.6944C55.2821 88.2954 57.1459 88.9117 59.0547 88.9117C59.3553 88.9272 59.8138 88.8886 60.1144 88.7114C60.3924 88.5496 60.5653 88.226 60.6254 87.7638C61.0162 85.044 58.679 81.3535 56.1839 78.9111C52.6968 75.4979 46.9477 73.0093 39.0792 71.53C38.6509 71.4453 38.0496 71.3682 37.7566 71.584C37.486 71.7843 37.5987 72.2312 37.7039 72.4623C38.7711 74.7737 43.4381 76.6922 47.1055 77.6321C48.0224 77.8633 49.0595 78.1329 49.796 78.7955C50.3596 79.304 50.5625 79.9512 50.3145 80.4829C49.9538 81.2764 48.9467 81.3612 48.2178 81.3458C47.1431 81.3304 46.0383 81.3458 44.9261 81.3612C40.8754 81.4074 36.6819 81.469 32.8266 80.1978C27.5058 78.4488 23.9285 74.5117 21.704 71.7072C20.9825 70.7981 20.1709 69.8735 19.1037 69.2418C18.0065 68.5946 16.7139 68.3788 15.7144 68.6562L15.7219 68.6639Z" fill="#3F3F3F"/>
<path d="M67.9378 89.9518C67.5094 89.9518 66.8781 89.9133 66.3671 89.6051C65.8185 89.2738 65.4652 88.6883 65.3525 87.9101C64.8791 84.6048 67.6146 80.583 70.1021 78.1483C73.732 74.5887 79.669 72.0077 87.7404 70.4899C88.4544 70.3589 89.2585 70.2818 89.8597 70.7287C90.476 71.1833 90.6263 72.0616 90.2355 72.9091C88.6573 76.3223 81.5554 78.2947 80.15 78.6491C79.3083 78.8648 78.4441 79.0883 77.8954 79.5814C77.6775 79.774 77.5948 79.982 77.6249 80.0436C77.6474 80.0899 77.7527 80.3364 78.7672 80.2902C79.8569 80.2748 80.9692 80.2902 82.0814 80.3056C86.0495 80.3595 90.1528 80.4058 93.8503 79.1961C98.908 77.5319 102.343 73.7489 104.484 71.0446C105.266 70.0584 106.16 69.0491 107.378 68.3326C108.745 67.5313 110.331 67.277 111.624 67.6623C111.759 67.7085 112.075 67.8009 112.255 68.0937C112.466 68.4404 112.338 68.8026 112.285 68.9412C111.714 70.59 110.557 72.1001 109.444 73.564L108.843 74.3576C108.212 75.2051 107.648 75.9371 107.325 76.3531L107.085 76.669C105.747 78.4642 104.379 80.244 102.996 82.016C102.823 82.2395 102.651 82.4706 102.485 82.7017C101.568 83.9499 100.614 85.2443 98.8705 85.8452C97.7357 86.2382 96.5332 86.3152 95.3684 86.3923C93.3317 86.5233 91.3928 86.5695 89.514 86.6157C88.1462 86.6465 86.7709 86.685 85.4032 86.7467C81.8259 86.9085 79.143 87.2398 76.693 87.8253C75.7386 88.0488 74.7766 88.3724 73.8372 88.6806C71.9584 89.3046 70.0195 89.9518 67.9453 89.9518H67.9302H67.9378ZM88.6648 71.4375C88.4168 71.4375 88.1462 71.4838 87.9208 71.5223C80.0523 73.0016 74.2956 75.4825 70.8161 78.9034C68.321 81.3457 65.9838 85.0363 66.3746 87.756C66.4422 88.2183 66.6151 88.5342 66.8856 88.696C67.1862 88.8732 67.6597 88.9271 67.9453 88.8963C69.8541 88.8963 71.7179 88.2722 73.5216 87.679C74.476 87.3631 75.468 87.0318 76.46 86.7929C78.9701 86.192 81.7207 85.8529 85.3581 85.6834C86.7334 85.6218 88.1162 85.591 89.4915 85.5525C91.3628 85.5062 93.2942 85.46 95.1805 85.3367C96.398 85.2597 97.5403 85.1826 98.5398 84.8359C99.9827 84.3428 100.794 83.2334 101.659 82.0546C101.831 81.8157 102.012 81.5769 102.185 81.3457C103.56 79.5737 104.92 77.8016 106.258 76.0064L106.513 75.6751C106.829 75.2668 107.385 74.5425 108.017 73.695L108.625 72.8937C109.677 71.5146 110.767 70.0815 111.293 68.6022C110.256 68.3557 108.971 68.5791 107.889 69.2186C106.822 69.8504 106.002 70.7749 105.288 71.6841C103.064 74.4886 99.4867 78.4257 94.1659 80.1746C90.3106 81.4382 86.1171 81.3842 82.0664 81.338C80.9541 81.3226 79.8569 81.3072 78.7747 81.3226C78.0608 81.338 77.0387 81.2533 76.678 80.4597C76.4375 79.9281 76.6329 79.2732 77.1965 78.7724C77.933 78.1098 78.9626 77.8478 79.8795 77.609C83.5544 76.669 88.2214 74.7505 89.2885 72.4391C89.4013 72.208 89.5065 71.7611 89.2359 71.5608C89.0931 71.4529 88.8827 71.4221 88.6573 71.4221L88.6648 71.4375Z" fill="#3F3F3F"/>
<path d="M14.6547 119.915V119.391L15.6918 119.052C15.767 119.029 15.8271 118.991 15.8797 118.937C15.9248 118.883 15.9473 118.806 15.9473 118.706V111.132C15.9473 111.032 15.9248 110.955 15.8722 110.909C15.8196 110.862 15.7595 110.824 15.6918 110.801L14.6547 110.446V109.938H22.1549V112.419H21.3658L21.1028 111.047C21.0878 110.962 21.0502 110.901 21.0051 110.855C20.96 110.808 20.8924 110.785 20.8172 110.785H17.3602V114.43H19.5171C19.6073 114.43 19.6749 114.406 19.72 114.36C19.7576 114.314 19.7876 114.252 19.8102 114.175L20.0582 113.058H20.6895V116.641H20.0582L19.8102 115.539C19.7951 115.454 19.7651 115.393 19.72 115.346C19.6824 115.3 19.6148 115.277 19.5171 115.277H17.3602V118.713C17.3602 118.814 17.3828 118.891 17.4354 118.944C17.488 118.998 17.5481 119.037 17.6232 119.06L18.7205 119.399V119.923H14.6622L14.6547 119.915Z" fill="#3F3F3F"/>
<path d="M28.0018 119.915C27.0098 119.915 26.1681 119.707 25.4767 119.307C24.7853 118.898 24.2592 118.32 23.8985 117.573C23.5377 116.826 23.3574 115.94 23.3574 114.915C23.3574 113.952 23.5452 113.089 23.9135 112.342C24.2817 111.594 24.8153 111.009 25.5142 110.577C26.2132 110.153 27.0398 109.938 28.0168 109.938C29.0765 109.938 29.9407 110.153 30.6246 110.593C31.3085 111.032 31.8195 111.625 32.1502 112.372C32.4809 113.12 32.6537 113.975 32.6537 114.915C32.6537 115.547 32.5635 116.163 32.3832 116.756C32.2028 117.357 31.9247 117.889 31.5565 118.367C31.1807 118.844 30.6997 119.222 30.1136 119.499C29.5274 119.777 28.8209 119.915 28.0018 119.915ZM28.122 119.129C28.7758 119.129 29.332 118.96 29.7754 118.621C30.2188 118.282 30.5494 117.812 30.7749 117.211C30.9928 116.61 31.1056 115.917 31.1056 115.131C31.1056 114.229 30.9853 113.443 30.7524 112.781C30.5194 112.118 30.1586 111.61 29.6852 111.248C29.2117 110.885 28.603 110.708 27.874 110.708C27.145 110.708 26.6115 110.885 26.1756 111.248C25.7397 111.61 25.4165 112.087 25.2136 112.688C25.0107 113.289 24.9055 113.944 24.9055 114.668C24.9055 115.562 25.0182 116.34 25.2512 117.011C25.4842 117.681 25.8374 118.197 26.3108 118.575C26.7843 118.944 27.393 119.137 28.122 119.137V119.129Z" fill="#3F3F3F"/>
<path d="M38.8989 119.915C38.0797 119.915 37.3958 119.777 36.8472 119.499C36.2986 119.222 35.8853 118.867 35.6072 118.436C35.3291 117.997 35.1939 117.535 35.1939 117.041V111.101C35.1939 111.001 35.1713 110.932 35.1187 110.885C35.0661 110.839 35.006 110.801 34.9233 110.77L33.9012 110.423V109.93H37.8918V110.423L36.8622 110.77C36.7871 110.793 36.727 110.832 36.6819 110.885C36.6293 110.939 36.6067 111.009 36.6067 111.101V116.356C36.6067 116.602 36.6368 116.88 36.6969 117.172C36.757 117.465 36.8773 117.75 37.0426 118.02C37.2155 118.29 37.4635 118.505 37.7866 118.675C38.1098 118.844 38.5381 118.929 39.0567 118.929C39.5752 118.929 40.0111 118.844 40.3493 118.667C40.6875 118.49 40.9505 118.274 41.1459 118.005C41.3413 117.735 41.4766 117.458 41.5518 117.165C41.6269 116.872 41.672 116.61 41.672 116.371V111.132C41.672 111.04 41.6495 110.97 41.5968 110.924C41.5442 110.878 41.4916 110.847 41.424 110.824L40.3944 110.431V109.938H43.8589V110.431L42.8293 110.824C42.7542 110.855 42.6941 110.885 42.649 110.932C42.5964 110.978 42.5738 111.047 42.5738 111.14V116.749C42.5738 117.319 42.4536 117.804 42.2056 118.213C41.9576 118.621 41.6495 118.945 41.2662 119.191C40.8829 119.445 40.4846 119.623 40.0562 119.746C39.6279 119.861 39.2371 119.923 38.8763 119.923L38.8989 119.915Z" fill="#3F3F3F"/>
<path d="M45.1741 119.877V119.353L46.2112 118.968C46.2863 118.937 46.3465 118.898 46.3991 118.852C46.4442 118.798 46.4667 118.729 46.4667 118.629V111.124C46.4667 111.024 46.4442 110.955 46.3915 110.901C46.3389 110.847 46.2788 110.808 46.2112 110.785L45.1365 110.423V109.915H47.8946L52.554 116.779L53.0726 117.673H53.1778V111.14C53.1778 111.039 53.1477 110.97 53.0951 110.932C53.0425 110.885 52.9824 110.855 52.9073 110.824L51.8852 110.423V109.915H55.3572V110.423L54.3276 110.824C54.2675 110.847 54.2074 110.885 54.1548 110.932C54.0947 110.978 54.0646 111.055 54.0646 111.14V118.328L53.8617 119.938H53.0651L47.9998 112.496L47.4813 111.586H47.376V118.613C47.376 118.713 47.4061 118.79 47.4587 118.844C47.5113 118.898 47.5714 118.937 47.6316 118.96L48.6461 119.345V119.869H45.1741V119.877Z" fill="#3F3F3F"/>
<path d="M56.7025 119.938V119.414L57.7396 119.075C57.8072 119.052 57.8673 119.014 57.9199 118.96C57.9725 118.906 57.9951 118.829 57.9951 118.729V111.132C57.9951 111.032 57.9725 110.955 57.9199 110.909C57.8673 110.862 57.8072 110.824 57.7396 110.801L56.7025 110.446V109.938H61.1064C61.4897 109.938 61.903 109.984 62.3389 110.076C62.7748 110.169 63.2031 110.331 63.6315 110.546C64.0599 110.77 64.4431 111.078 64.7889 111.463C65.1346 111.848 65.4126 112.334 65.623 112.904C65.8335 113.482 65.9387 114.175 65.9387 114.977C65.9387 116.117 65.7207 117.057 65.2849 117.789C64.849 118.521 64.2628 119.068 63.5263 119.414C62.7898 119.761 61.9782 119.938 61.0838 119.938H56.71H56.7025ZM59.4004 110.77V119.099H61.1139C62.2337 119.099 63.0603 118.76 63.5864 118.074C64.1125 117.388 64.3755 116.425 64.3755 115.185C64.3755 114.275 64.2252 113.49 63.9246 112.827C63.624 112.164 63.1956 111.656 62.647 111.301C62.0984 110.947 61.4521 110.762 60.7081 110.762H59.4155L59.4004 110.77Z" fill="#3F3F3F"/>
<path d="M66.57 119.938V119.422L67.2539 119.114C67.4192 119.037 67.5319 118.914 67.5996 118.736L70.3351 111.571L71.1242 109.93H71.8832L75.2726 118.752C75.3027 118.821 75.3478 118.898 75.4004 118.975C75.453 119.052 75.5206 119.099 75.5883 119.129L76.3022 119.422V119.938H72.7475V119.422L73.8748 119.022L71.4699 112.719L71.2069 111.787H71.0941L68.4413 118.983L69.5836 119.414V119.931H66.57V119.938ZM69.2529 116.479L69.5836 115.524H72.6799L73.0105 116.479H69.2604H69.2529Z" fill="#3F3F3F"/>
<path d="M78.2637 119.938V119.414L79.3759 119.075C79.4586 119.052 79.5187 119.014 79.5638 118.96C79.6089 118.906 79.6314 118.829 79.6314 118.729V110.77H77.4144C77.3468 110.77 77.2792 110.793 77.2266 110.839C77.174 110.885 77.1364 110.955 77.1289 111.032L76.8583 112.534H76.0692V109.93H84.5915V112.534H83.8024L83.5318 111.032C83.5168 110.939 83.4792 110.87 83.4341 110.832C83.3815 110.793 83.3214 110.77 83.2538 110.77H81.0293V118.729C81.0293 118.829 81.0518 118.906 81.1044 118.96C81.157 119.014 81.2171 119.052 81.2923 119.075L82.4046 119.414V119.938H78.2561H78.2637Z" fill="#3F3F3F"/>
<path d="M85.809 119.938V119.414L86.8987 119.075C86.9814 119.045 87.0415 119.006 87.0866 118.96C87.1317 118.906 87.1542 118.829 87.1542 118.729V111.132C87.1542 111.032 87.1317 110.955 87.0791 110.909C87.0265 110.862 86.9663 110.824 86.8987 110.801L85.809 110.446V109.938H89.9048V110.446L88.8226 110.801C88.755 110.824 88.6873 110.862 88.6347 110.916C88.5821 110.97 88.5596 111.04 88.5596 111.14V118.736C88.5596 118.837 88.5821 118.914 88.6347 118.968C88.6873 119.022 88.7475 119.06 88.8226 119.083L89.9048 119.422V119.946H85.809V119.938Z" fill="#3F3F3F"/>
<path d="M95.9996 119.915C95.0076 119.915 94.1659 119.707 93.4745 119.307C92.7831 118.898 92.2571 118.32 91.8963 117.573C91.5356 116.826 91.3552 115.94 91.3552 114.915C91.3552 113.952 91.5431 113.089 91.9114 112.342C92.2796 111.594 92.8132 111.009 93.5121 110.577C94.211 110.153 95.0377 109.938 96.0147 109.938C97.0668 109.938 97.9386 110.153 98.6225 110.593C99.3063 111.032 99.8174 111.625 100.148 112.372C100.479 113.12 100.652 113.975 100.652 114.915C100.652 115.547 100.561 116.163 100.381 116.756C100.201 117.357 99.9226 117.889 99.5544 118.367C99.1786 118.844 98.6976 119.222 98.1114 119.499C97.5252 119.777 96.8188 119.915 95.9996 119.915ZM96.1199 119.129C96.7737 119.129 97.3298 118.96 97.7732 118.621C98.2166 118.282 98.5473 117.812 98.7728 117.211C98.9907 116.61 99.1034 115.917 99.1034 115.131C99.1034 114.229 98.9832 113.443 98.7502 112.781C98.5172 112.118 98.164 111.61 97.6831 111.248C97.2096 110.885 96.6009 110.708 95.8719 110.708C95.1429 110.708 94.6093 110.885 94.1734 111.248C93.7376 111.61 93.4144 112.087 93.2115 112.688C93.0086 113.289 92.9034 113.944 92.9034 114.668C92.9034 115.562 93.0161 116.34 93.2491 117.011C93.482 117.681 93.8353 118.197 94.3087 118.575C94.7822 118.944 95.3909 119.137 96.1199 119.137V119.129Z" fill="#3F3F3F"/>
<path d="M102.102 119.931V119.407L103.139 119.014C103.214 118.983 103.274 118.944 103.327 118.898C103.38 118.852 103.395 118.767 103.395 118.675V111.132C103.395 111.032 103.372 110.962 103.319 110.908C103.267 110.855 103.207 110.816 103.139 110.793L102.064 110.431V109.922H104.823L109.482 116.826L110.001 117.727H110.106V111.163C110.106 111.063 110.076 110.993 110.023 110.947C109.97 110.901 109.903 110.87 109.835 110.839L108.813 110.431V109.922H112.285V110.431L111.256 110.839C111.195 110.862 111.143 110.901 111.083 110.947C111.023 110.993 110.993 111.07 110.993 111.163V118.39L110.79 120.008H109.993L104.928 112.526L104.409 111.61H104.304V118.675C104.304 118.775 104.334 118.852 104.387 118.906C104.439 118.96 104.499 118.998 104.559 119.021L105.574 119.414V119.938H102.102V119.931Z" fill="#3F3F3F"/>
<path d="M20.945 103.774V101.578C20.945 101.493 20.9224 101.424 20.8849 101.378C20.8398 101.332 20.7872 101.301 20.727 101.285L19.5321 100.962V100.5H23.192V100.962L22.4255 101.285C22.3729 101.309 22.3203 101.339 22.2752 101.386C22.2226 101.432 22.2 101.493 22.2 101.586V102.626C22.2 103.027 22.2 103.366 22.2 103.643C22.2 103.92 22.2075 104.144 22.2301 104.313C21.7942 104.483 21.2832 104.637 20.6895 104.768C20.0958 104.899 19.5096 104.968 18.9083 104.968C18.1493 104.968 17.4579 104.783 16.8266 104.421C16.1953 104.059 15.6843 103.527 15.3085 102.819C14.9328 102.11 14.7449 101.255 14.7449 100.238C14.7449 99.2206 14.9328 98.427 15.3085 97.7104C15.6843 97.0016 16.1953 96.4469 16.8417 96.0539C17.488 95.661 18.2245 95.4684 19.0436 95.4684C19.4194 95.4684 19.7801 95.4838 20.1108 95.5223C20.449 95.5608 20.7796 95.6148 21.1178 95.6841C21.456 95.7535 21.7942 95.8382 22.1549 95.9384V98.2575H21.441L21.2155 96.9477C21.2005 96.8783 21.1704 96.8244 21.1103 96.7859C21.0502 96.7474 20.9976 96.7165 20.945 96.6857C20.6594 96.547 20.3362 96.4392 19.983 96.3621C19.6298 96.2851 19.2841 96.2388 18.9309 96.2388C18.3823 96.2388 17.8938 96.3775 17.4729 96.6472C17.0521 96.9169 16.7214 97.3329 16.4884 97.8799C16.2555 98.427 16.1352 99.1204 16.1352 99.9679C16.1352 100.815 16.2555 101.524 16.496 102.164C16.7364 102.796 17.0897 103.296 17.5481 103.651C18.0065 104.013 18.5626 104.19 19.209 104.19C19.4795 104.19 19.7275 104.167 19.9605 104.113C20.1934 104.059 20.3888 104.005 20.5617 103.936C20.7345 103.866 20.8623 103.82 20.9525 103.774H20.945Z" fill="#3F3F3F"/>
<path d="M26.1605 104.883C25.7697 104.883 25.4391 104.791 25.161 104.614C24.8829 104.429 24.6725 104.198 24.5222 103.905C24.3719 103.612 24.2968 103.304 24.2968 102.973C24.2968 102.541 24.402 102.171 24.6049 101.871C24.8078 101.57 25.0708 101.332 25.394 101.154C25.7171 100.977 26.0553 100.846 26.416 100.761C26.7768 100.684 27.1075 100.638 27.4081 100.638C27.4682 100.638 27.5659 100.638 27.7012 100.661C27.8364 100.677 27.9717 100.684 28.107 100.7C28.2423 100.715 28.3399 100.723 28.3926 100.738V99.7983C28.4001 99.3206 28.2949 98.9893 28.0619 98.8121C27.8364 98.6272 27.5433 98.5425 27.1826 98.5425C26.9797 98.5425 26.7693 98.581 26.5664 98.6503C26.3634 98.7274 26.1605 98.8198 25.9727 98.9277C25.7848 99.0356 25.6119 99.1511 25.4541 99.2667C25.2963 99.3823 25.161 99.4747 25.0483 99.5518H24.8078L24.7627 98.319C24.9957 98.2266 25.2362 98.1341 25.4766 98.0494C25.7171 97.9646 25.9877 97.8876 26.2733 97.8337C26.5588 97.7797 26.8895 97.7489 27.2502 97.7489C27.641 97.7489 28.0168 97.8105 28.3775 97.9261C28.7383 98.0494 29.0314 98.2651 29.2568 98.581C29.4898 98.8969 29.595 99.3438 29.595 99.937L29.58 103.458C29.58 103.612 29.6401 103.743 29.7603 103.843C29.8806 103.943 30.0083 103.99 30.1586 103.99C30.2413 103.99 30.3315 103.967 30.4442 103.928C30.5569 103.89 30.6546 103.843 30.7448 103.797H30.8425V104.329C30.7674 104.39 30.6546 104.46 30.5043 104.552C30.354 104.645 30.2037 104.722 30.0459 104.783C29.8881 104.853 29.7378 104.883 29.61 104.883C29.2343 104.883 28.9487 104.791 28.7608 104.606C28.5729 104.421 28.4827 104.128 28.4827 103.735H28.4076C28.1896 104.067 27.9416 104.313 27.6711 104.475C27.4005 104.637 27.13 104.752 26.867 104.806C26.6039 104.86 26.3634 104.891 26.153 104.891L26.1605 104.883ZM26.7542 103.974C27.0173 103.974 27.3104 103.92 27.641 103.797C27.9717 103.681 28.2197 103.497 28.4001 103.242V101.332C27.8439 101.332 27.3479 101.37 26.9271 101.439C26.5062 101.509 26.1756 101.655 25.9426 101.855C25.7096 102.056 25.5894 102.356 25.5894 102.749C25.5894 103.065 25.6495 103.312 25.7697 103.489C25.89 103.666 26.0403 103.789 26.2207 103.866C26.401 103.936 26.5814 103.974 26.7542 103.974Z" fill="#3F3F3F"/>
<path d="M31.3386 104.752V104.29L32.2479 104.036C32.3155 104.013 32.3757 103.982 32.4207 103.928C32.4658 103.874 32.4884 103.813 32.4884 103.72V96.208C32.4884 96.1156 32.4583 96.0462 32.4057 95.9923C32.3531 95.9384 32.293 95.8998 32.2178 95.869L31.2859 95.5069V95.06L33.6833 94.9445V103.72C33.6833 103.813 33.7059 103.874 33.7585 103.928C33.8111 103.974 33.8637 104.013 33.9313 104.036L34.8106 104.29V104.752H31.331H31.3386Z" fill="#3F3F3F"/>
<path d="M39.8834 104.39L39.8458 101.963H40.5597L40.8153 103.273C40.8303 103.335 40.8679 103.389 40.928 103.45C40.9881 103.512 41.0407 103.558 41.0858 103.589C41.2361 103.689 41.4014 103.789 41.5893 103.882C41.7697 103.974 41.9651 104.051 42.168 104.105C42.3709 104.159 42.5813 104.19 42.7918 104.19C43.4155 104.19 43.9115 104.044 44.2723 103.759C44.633 103.474 44.8059 103.081 44.8059 102.58C44.8059 102.202 44.7006 101.894 44.4827 101.648C44.2723 101.401 43.9867 101.201 43.626 101.047C43.2803 100.893 42.9421 100.762 42.6039 100.654C42.2657 100.546 41.9425 100.423 41.6194 100.284C41.1309 100.076 40.7476 99.7753 40.4771 99.3901C40.199 99.0049 40.0637 98.5426 40.0637 97.9956C40.0637 97.5025 40.1915 97.071 40.4545 96.6858C40.71 96.3005 41.0633 96 41.5067 95.7766C41.9501 95.5532 42.4461 95.4453 42.9872 95.4453C43.3178 95.4453 43.6335 95.4684 43.9341 95.507C44.2347 95.5532 44.5203 95.5994 44.7908 95.6687C45.0614 95.7304 45.3169 95.7997 45.5649 95.8614V98.1882H44.8585L44.618 96.9477C44.6029 96.8861 44.5729 96.8322 44.5128 96.7705C44.4526 96.7166 44.4 96.6704 44.3474 96.6318C44.2572 96.5625 44.1445 96.4932 44.0092 96.4315C43.874 96.3699 43.7237 96.3236 43.5583 96.2851C43.393 96.2466 43.2201 96.2312 43.0247 96.2312C42.4536 96.2312 42.0102 96.3545 41.6945 96.6087C41.3789 96.863 41.2211 97.1712 41.2211 97.541C41.2211 97.8723 41.3037 98.1805 41.4766 98.4655C41.6495 98.7506 41.9726 98.9895 42.4611 99.1821C42.7843 99.3053 43.0999 99.4209 43.408 99.5288C43.7161 99.6366 44.0543 99.7753 44.4226 99.9371C44.6931 100.053 44.9486 100.207 45.1966 100.399C45.4446 100.592 45.6476 100.831 45.8054 101.131C45.9632 101.432 46.0459 101.802 46.0459 102.241C46.0459 102.68 45.9331 103.142 45.7002 103.558C45.4672 103.974 45.1065 104.313 44.618 104.575C44.122 104.837 43.4757 104.968 42.679 104.968C42.401 104.968 42.1079 104.937 41.7998 104.876C41.4916 104.814 41.176 104.745 40.8528 104.652C40.5297 104.56 40.214 104.475 39.8984 104.383L39.8834 104.39Z" fill="#3F3F3F"/>
<path d="M50.4047 104.899C49.8185 104.899 49.2924 104.768 48.8265 104.498C48.353 104.229 47.9848 103.836 47.7142 103.312C47.4437 102.788 47.3009 102.148 47.3009 101.386C47.3009 100.708 47.4362 100.091 47.6992 99.5442C47.9622 98.9971 48.3305 98.5657 48.7964 98.2421C49.2624 97.9185 49.811 97.7644 50.4272 97.7644C50.9984 97.7644 51.4869 97.8877 51.8927 98.1342C52.2985 98.3808 52.6067 98.7121 52.8246 99.1204C53.0425 99.5288 53.1478 99.9756 53.1478 100.461C53.1478 100.515 53.1478 100.584 53.1478 100.677C53.1478 100.769 53.1402 100.846 53.1327 100.931C53.1327 101.016 53.1177 101.085 53.1027 101.147H48.4808L48.5184 100.492H51.8702C51.8702 100.076 51.8176 99.7214 51.7199 99.4132C51.6222 99.1127 51.4643 98.8739 51.2464 98.7044C51.0285 98.5349 50.7354 98.4578 50.3671 98.4578C49.9989 98.4578 49.7208 98.5349 49.4878 98.6967C49.2549 98.8585 49.067 99.0665 48.9392 99.3284C48.804 99.5904 48.7063 99.8755 48.6536 100.184C48.601 100.492 48.571 100.8 48.571 101.101C48.571 101.64 48.6461 102.118 48.7889 102.549C48.9317 102.98 49.1797 103.319 49.5104 103.574C49.8411 103.828 50.292 103.951 50.8556 103.951C51.1637 103.951 51.4568 103.905 51.7274 103.813C51.9979 103.72 52.2384 103.605 52.4488 103.474C52.6593 103.343 52.8396 103.219 52.9749 103.111H53.1402V103.843C52.8396 104.098 52.4488 104.344 51.9679 104.575C51.4869 104.806 50.9759 104.914 50.4272 104.914L50.4047 104.899Z" fill="#3F3F3F"/>
<path d="M54.3352 104.753V104.29L55.0717 104.036C55.1468 104.013 55.1994 103.982 55.2445 103.928C55.2896 103.882 55.3122 103.813 55.3122 103.72V99.2437C55.3122 99.1512 55.2896 99.0819 55.237 99.028C55.1919 98.9817 55.1243 98.9355 55.0416 98.9047L54.3352 98.5965V98.1496L56.3944 97.8029V98.8893H56.4695C56.71 98.558 56.9505 98.3114 57.191 98.1573C57.4315 97.9955 57.6644 97.8877 57.8974 97.8414C58.1304 97.7875 58.3633 97.7644 58.5888 97.7644C58.9721 97.7644 59.3178 97.8414 59.6334 98.0032C59.9491 98.165 60.1971 98.4116 60.3849 98.7506C60.5728 99.0896 60.663 99.5288 60.663 100.068V103.712C60.663 103.813 60.6856 103.89 60.7306 103.944C60.7757 103.997 60.8359 104.028 60.9035 104.051L61.5573 104.306V104.768H58.5963V104.306L59.2126 104.051C59.2877 104.021 59.3478 103.982 59.3929 103.936C59.438 103.89 59.4681 103.813 59.4681 103.712V100.615C59.4681 100.214 59.4305 99.8755 59.3629 99.5981C59.2952 99.3207 59.16 99.105 58.957 98.9509C58.7541 98.8045 58.4535 98.7275 58.0552 98.7275C57.7922 98.7275 57.5141 98.7737 57.2285 98.8662C56.943 98.9586 56.695 99.1281 56.4996 99.3824V103.736C56.4996 103.828 56.5221 103.89 56.5747 103.944C56.6273 103.99 56.6799 104.028 56.7476 104.051L57.3112 104.306V104.768H54.3277L54.3352 104.753Z" fill="#3F3F3F"/>
<path d="M62.5118 104.753V104.29L63.4211 104.036C63.4963 104.013 63.5489 103.982 63.6015 103.928C63.6466 103.882 63.6691 103.813 63.6691 103.72V99.3053C63.6691 99.2129 63.6466 99.1435 63.594 99.0896C63.5413 99.0357 63.4812 99.0048 63.3986 98.974L62.5193 98.6658V98.2113L64.8715 97.8723V103.728C64.8715 103.82 64.8941 103.89 64.9392 103.936C64.9843 103.99 65.0369 104.021 65.1045 104.036L66.0063 104.29V104.753H62.5042H62.5118ZM63.9021 96.5933C63.7518 96.5933 63.609 96.5625 63.4737 96.4931C63.3384 96.4238 63.2332 96.3313 63.1506 96.2081C63.0679 96.0848 63.0303 95.9384 63.0303 95.7689C63.0303 95.4992 63.113 95.2912 63.2858 95.1448C63.4587 94.9984 63.6616 94.9291 63.8946 94.9291C64.1651 94.9291 64.3831 94.9984 64.5484 95.1294C64.7137 95.2681 64.7964 95.4607 64.7964 95.7227C64.7964 95.9076 64.7588 96.0617 64.6761 96.1926C64.601 96.3236 64.4883 96.4238 64.353 96.4931C64.2177 96.5625 64.0599 96.601 63.887 96.601L63.9021 96.5933Z" fill="#3F3F3F"/>
<path d="M69.8842 104.907C69.2604 104.907 68.7118 104.76 68.2384 104.475C67.7649 104.19 67.4042 103.774 67.1411 103.242C66.8781 102.711 66.7503 102.079 66.7503 101.339C66.7503 100.661 66.8781 100.045 67.1411 99.5056C67.3966 98.9662 67.7649 98.5348 68.2459 98.2189C68.7268 97.903 69.2905 97.7412 69.9443 97.7412C70.6583 97.7412 71.2445 97.9107 71.7029 98.242C72.1613 98.5733 72.507 99.0125 72.7325 99.5518C72.9579 100.091 73.0707 100.677 73.0707 101.316C73.0707 101.986 72.9429 102.587 72.6874 103.134C72.4319 103.674 72.0636 104.105 71.5826 104.429C71.1017 104.745 70.538 104.907 69.8767 104.907H69.8842ZM70.2374 104.213C70.5906 104.213 70.8762 104.128 71.1092 103.959C71.3421 103.789 71.5225 103.566 71.6578 103.296C71.7931 103.019 71.8908 102.726 71.9434 102.403C71.996 102.079 72.026 101.763 72.026 101.455C72.026 100.954 71.9659 100.469 71.8381 100.006C71.7104 99.5441 71.515 99.1666 71.2369 98.8815C70.9589 98.5964 70.5906 98.4423 70.1247 98.4423C69.779 98.4423 69.4934 98.5271 69.2604 98.6889C69.035 98.8584 68.8471 99.0741 68.7118 99.3515C68.5765 99.6288 68.4788 99.9216 68.4262 100.245C68.3661 100.569 68.3361 100.877 68.3361 101.185C68.3361 101.524 68.3661 101.879 68.4262 102.233C68.4864 102.587 68.5916 102.919 68.7344 103.212C68.8771 103.512 69.0725 103.751 69.313 103.943C69.5535 104.136 69.8616 104.221 70.2299 104.221L70.2374 104.213Z" fill="#3F3F3F"/>
<path d="M74.5361 104.753V104.29L75.2801 104.036C75.3478 104.013 75.4079 103.982 75.453 103.928C75.4981 103.882 75.5206 103.813 75.5206 103.72V99.3208C75.5206 99.2129 75.4906 99.1281 75.4304 99.0665C75.3703 99.0049 75.3102 98.9586 75.2426 98.9278L74.491 98.5965V98.1497L76.6254 97.8029V99.2822H76.6855C76.9335 98.9124 77.1589 98.6196 77.3694 98.3962C77.5798 98.1728 77.7977 98.011 78.0082 97.9108C78.2186 97.8106 78.4365 97.7567 78.662 97.7567C78.8574 97.7567 79.0528 97.7798 79.2557 97.8261C79.4586 97.8723 79.6314 97.9724 79.7893 98.1188V99.6983H79.0528L78.8799 99.2129C78.8423 99.105 78.7522 99.0203 78.6169 98.9586C78.4816 98.897 78.3463 98.8662 78.2186 98.8662C77.9856 98.8662 77.7827 98.9201 77.6098 99.028C77.4295 99.1358 77.2717 99.2668 77.1289 99.4286C76.9861 99.5904 76.8508 99.7522 76.723 99.9063V103.728C76.723 103.89 76.8057 103.997 76.9635 104.036L77.8954 104.29V104.753H74.5361Z" fill="#3F3F3F"/>
<path d="M91.761 102.726H92.0692V103.566C91.8362 103.766 91.5581 103.974 91.2275 104.19C90.9043 104.406 90.5436 104.583 90.1528 104.729C89.762 104.876 89.3562 104.945 88.9203 104.945C88.0635 104.945 87.312 104.76 86.6732 104.39C86.0344 104.021 85.5309 103.481 85.1777 102.78C84.8245 102.071 84.6441 101.224 84.6441 100.222C84.6441 99.2205 84.832 98.4193 85.2002 97.7104C85.5685 96.9939 86.0795 96.4469 86.7258 96.0539C87.3721 95.661 88.1086 95.4684 88.9353 95.4684C89.2359 95.4684 89.5591 95.4915 89.9273 95.5454C90.2956 95.5994 90.6413 95.661 90.987 95.7303C91.3327 95.7997 91.6182 95.869 91.8512 95.9307V98.2498H91.1448L90.9118 96.9477C90.8968 96.8783 90.8667 96.8244 90.8066 96.7782C90.7465 96.7319 90.6788 96.6934 90.6112 96.6549C90.3557 96.5162 90.0851 96.4161 89.792 96.339C89.499 96.262 89.1758 96.2311 88.8301 96.2311C88.0034 96.2311 87.3346 96.5393 86.816 97.148C86.2975 97.7567 86.0344 98.6889 86.0344 99.9371C86.0344 101.262 86.3125 102.256 86.8686 102.934C87.4247 103.612 88.2289 103.944 89.2735 103.944C89.6267 103.944 89.9348 103.89 90.2129 103.774C90.491 103.658 90.754 103.512 90.9945 103.327C91.235 103.142 91.4905 102.942 91.746 102.718L91.761 102.726Z" fill="#3F3F3F"/>
<path d="M95.1579 104.883C94.7671 104.883 94.4365 104.791 94.1584 104.614C93.8803 104.429 93.6699 104.198 93.5196 103.905C93.3693 103.612 93.2942 103.304 93.2942 102.973C93.2942 102.541 93.3994 102.171 93.6023 101.871C93.8052 101.57 94.0682 101.332 94.3914 101.154C94.7145 100.977 95.0527 100.846 95.4135 100.761C95.7742 100.684 96.1049 100.638 96.4055 100.638C96.4656 100.638 96.5633 100.638 96.6986 100.661C96.8338 100.684 96.9691 100.684 97.1044 100.7C97.2397 100.715 97.3374 100.723 97.39 100.738V99.7983C97.3975 99.3206 97.2847 98.9893 97.0593 98.8121C96.8338 98.6349 96.5407 98.5425 96.18 98.5425C95.9771 98.5425 95.7667 98.581 95.5638 98.6503C95.3609 98.7274 95.1579 98.8198 94.9701 98.9277C94.7822 99.0433 94.6093 99.1511 94.4515 99.2667C94.2937 99.3823 94.1584 99.4747 94.0457 99.5518H93.8052L93.7601 98.319C93.9931 98.2266 94.2336 98.1341 94.4741 98.0494C94.7145 97.9646 94.9851 97.8876 95.2707 97.8337C95.5562 97.7797 95.8869 97.7489 96.2477 97.7489C96.6384 97.7489 97.0142 97.8105 97.3749 97.9261C97.7357 98.0417 98.0288 98.2651 98.2542 98.581C98.4872 98.8969 98.5924 99.3438 98.5924 99.937L98.5774 103.458C98.5774 103.612 98.6375 103.743 98.7577 103.843C98.878 103.943 99.0057 103.99 99.156 103.99C99.2387 103.99 99.3289 103.967 99.4416 103.928C99.5544 103.89 99.652 103.843 99.7497 103.797H99.8474V104.329C99.7723 104.39 99.6596 104.46 99.5093 104.552C99.3665 104.645 99.2087 104.722 99.0508 104.783C98.893 104.853 98.7427 104.883 98.6149 104.883C98.2392 104.883 97.9536 104.791 97.7657 104.606C97.5778 104.421 97.4877 104.128 97.4877 103.735H97.405C97.1871 104.067 96.9391 104.313 96.6685 104.475C96.398 104.637 96.1274 104.752 95.8644 104.806C95.6013 104.86 95.3609 104.891 95.1504 104.891L95.1579 104.883ZM95.451 103.974C95.7141 103.974 96.0072 103.92 96.3303 103.797C96.6535 103.674 96.909 103.497 97.0894 103.242V101.332C96.5332 101.332 96.0372 101.37 95.6164 101.439C95.1955 101.516 94.8648 101.655 94.6319 101.855C94.3989 102.056 94.2787 102.356 94.2787 102.749C94.2787 103.065 94.3388 103.312 94.459 103.489C94.5793 103.666 94.7296 103.789 94.9099 103.866C95.0903 103.936 95.2707 103.974 95.4435 103.974H95.451Z" fill="#3F3F3F"/>
<path d="M100.516 104.753V104.29L101.26 104.036C101.328 104.013 101.388 103.982 101.433 103.928C101.478 103.874 101.501 103.813 101.501 103.72V99.3208C101.501 99.2129 101.471 99.1281 101.411 99.0665C101.35 99.0049 101.29 98.9586 101.223 98.9278L100.471 98.5965V98.1497L102.606 97.8029V99.2822H102.666C102.914 98.9124 103.139 98.6196 103.35 98.3962C103.56 98.1728 103.778 98.011 103.988 97.9108C104.199 97.8106 104.417 97.7567 104.642 97.7567C104.838 97.7567 105.033 97.7798 105.236 97.8261C105.439 97.8723 105.612 97.9724 105.769 98.1188V99.6983H105.033L104.86 99.2129C104.823 99.105 104.732 99.0203 104.597 98.9586C104.462 98.897 104.327 98.8662 104.199 98.8662C103.973 98.8662 103.763 98.9201 103.59 99.028C103.41 99.1358 103.252 99.2668 103.109 99.4286C102.966 99.5904 102.831 99.7522 102.703 99.9063V103.728C102.703 103.89 102.786 103.997 102.944 104.036L103.876 104.29V104.753H100.516Z" fill="#3F3F3F"/>
<path d="M109.647 104.899C109.061 104.899 108.535 104.768 108.069 104.498C107.596 104.229 107.227 103.836 106.957 103.312C106.686 102.788 106.544 102.148 106.544 101.386C106.544 100.708 106.679 100.091 106.942 99.5442C107.205 98.9971 107.573 98.5657 108.039 98.2421C108.505 97.9185 109.054 97.7644 109.67 97.7644C110.241 97.7644 110.73 97.8877 111.135 98.1342C111.541 98.3808 111.849 98.7121 112.067 99.1204C112.285 99.5288 112.39 99.9756 112.39 100.461C112.39 100.515 112.39 100.584 112.39 100.677C112.39 100.769 112.383 100.846 112.375 100.931C112.375 101.016 112.36 101.085 112.345 101.147H107.723L107.761 100.492H111.113C111.113 100.076 111.06 99.7214 110.962 99.4132C110.865 99.1127 110.707 98.8739 110.489 98.7044C110.271 98.5349 109.978 98.4578 109.61 98.4578C109.241 98.4578 108.963 98.5349 108.73 98.6967C108.497 98.8585 108.31 99.0665 108.182 99.3284C108.054 99.5904 107.949 99.8755 107.896 100.184C107.836 100.492 107.814 100.8 107.814 101.101C107.814 101.64 107.889 102.118 108.032 102.549C108.174 102.98 108.422 103.319 108.753 103.574C109.084 103.828 109.535 103.951 110.098 103.951C110.406 103.951 110.699 103.905 110.97 103.813C111.241 103.72 111.481 103.605 111.691 103.474C111.902 103.343 112.082 103.219 112.218 103.111H112.39V103.843C112.09 104.098 111.699 104.344 111.218 104.575C110.737 104.806 110.226 104.914 109.677 104.914L109.647 104.899Z" fill="#3F3F3F"/>
</g>
<defs>
<clipPath id="clip0_109_58">
<rect width="127" height="120" fill="white"/>
</clipPath>
</defs>
</svg>
