<svg width="4275" height="4039" viewBox="0 0 4275 4039" fill="none" xmlns="http://www.w3.org/2000/svg">
<g clip-path="url(#clip0_219_56)">
<path d="M2137.34 2237.11L0 2210.92L2137.34 2184.73V2237.11Z" fill="#F1BB79"/>
<path d="M2137.34 2184.73L4274.43 2210.92L2137.34 2237.11V2184.73Z" fill="#F1BB79"/>
<path d="M2128.74 2186.28L4145.68 1443.09L2145.94 2235.55L2128.74 2186.28Z" fill="#F1BB79"/>
<path d="M2121.15 2190.69L3774.62 767.828L2153.28 2231.14L2121.15 2190.69Z" fill="#F1BB79"/>
<path d="M2115.59 2197.7L3206.01 266.578L2158.84 2224.15L2115.59 2197.7Z" fill="#F1BB79"/>
<path d="M2112.55 2206.25L2508.4 0L2161.87 2215.59L2112.55 2206.25Z" fill="#F1BB79"/>
<path d="M2112.55 2215.59L1766.02 0L2161.87 2206.25L2112.55 2215.59Z" fill="#F1BB79"/>
<path d="M2115.59 2224.15L1068.67 266.578L2158.84 2197.7L2115.59 2224.15Z" fill="#F1BB79"/>
<path d="M2121.15 2231.14L500.062 767.828L2153.28 2190.69L2121.15 2231.14Z" fill="#F1BB79"/>
<path d="M2128.74 2235.55L128.999 1443.09L2145.94 2186.28L2128.74 2235.55Z" fill="#F1BB79"/>
<path d="M3385.09 2184.21C3379.02 1733.52 3090.67 1313.95 2715.81 1112.72C2322.49 901.636 1852.28 914.861 1475.4 1158.1C1327.93 1253.27 1198.93 1380.07 1100.79 1529.7C977.359 1717.96 898.947 1939.41 879.977 2167.35C890.853 1899.48 981.659 1635.76 1136.71 1422.86C1406.6 1052.04 1844.44 865.332 2284.04 924.974C2434.54 945.46 2581.75 993.174 2716.82 1066.04C3017.06 1227.85 3250.27 1511.8 3340.57 1854.88C3368.65 1961.97 3383.57 2072.96 3385.09 2184.21Z" fill="#F1BB79"/>
<path d="M1988.11 3027.5H1987.6C1917.79 3027.5 1852.53 3005.71 1789.29 2984.71C1757.93 2974.34 1725.3 2963.45 1693.18 2955.93C1610.72 2936.22 1520.42 2925.07 1400.02 2919.62C1353.99 2917.55 1307.7 2916.51 1261.66 2915.21C1198.43 2913.66 1133.17 2912.1 1068.67 2907.95C1025.42 2905.1 984.694 2902.51 946.753 2889.28C888.071 2869.05 855.948 2825.49 825.089 2783.48C819.271 2775.7 813.707 2767.92 807.636 2760.4C761.348 2700.76 715.313 2640.6 670.037 2580.44L661.184 2569.03C650.308 2555.02 631.843 2530.91 610.849 2502.9L590.867 2476.45C553.432 2427.18 514.479 2376.36 495.256 2320.6C493.738 2315.94 489.438 2303.75 496.267 2292.08C502.085 2282.23 512.961 2279.11 517.514 2277.56C560.767 2264.59 614.39 2272.89 660.425 2300.12C701.401 2324.23 731.501 2358.2 757.807 2391.4C829.895 2482.42 945.488 2609.74 1115.72 2665.75C1239.91 2706.72 1378.27 2704.91 1511.82 2703.09C1549.51 2702.57 1586.69 2702.06 1623.37 2702.57C1655.49 2703.61 1661.31 2695.57 1661.81 2694.28C1662.82 2692.2 1660.04 2685.2 1652.71 2678.72C1634.24 2662.12 1605.15 2654.6 1577.08 2647.34C1529.53 2635.15 1290.5 2568.77 1237.38 2453.89C1224.23 2425.37 1229.29 2396.06 1250.03 2380.51C1270.26 2365.47 1297.58 2368.06 1321.36 2372.47C1593.01 2423.55 1792.58 2510.16 1915.01 2630.23C1998.73 2712.43 2090.8 2847.53 2074.86 2958.78C2071.07 2984.97 2059.18 3004.68 2040.72 3015.83C2023.52 3026.2 2002.27 3027.5 1987.85 3027.5H1988.11ZM529.15 2311.01C547.867 2362.09 583.785 2409.03 618.437 2454.41L638.672 2481.12C659.413 2508.87 677.878 2532.98 688.754 2546.73L697.86 2558.66C742.884 2618.82 788.919 2678.72 834.954 2738.36C841.024 2746.14 846.842 2754.18 852.912 2762.22C882 2801.63 909.318 2838.97 957.882 2855.83C991.523 2867.5 1029.97 2869.83 1066.9 2872.43C1134.69 2876.83 1199.69 2878.39 1262.42 2879.95C1308.71 2880.98 1355.25 2882.28 1401.54 2884.35C1524.21 2889.8 1616.54 2901.47 1701.02 2921.7C1734.41 2929.73 1767.8 2940.63 1799.92 2951.52C1860.62 2971.74 1923.35 2992.49 1987.6 2992.49C1997.72 2993.01 2013.15 2991.71 2023.26 2985.75C2032.62 2980.3 2038.44 2969.41 2040.46 2953.85C2053.62 2862.31 1974.95 2738.1 1890.98 2655.9C1773.61 2541.02 1580.11 2457.26 1315.29 2407.47C1300.87 2404.62 1280.63 2402.03 1270.77 2409.29C1261.66 2416.03 1265.46 2431.07 1269 2438.85C1304.92 2516.65 1461.99 2581.22 1585.43 2612.85C1616.28 2620.63 1651.19 2629.71 1675.98 2652.01C1694.95 2669.12 1701.78 2690.91 1693.43 2708.8C1681.29 2735.51 1647.4 2738.36 1622.86 2737.84C1586.69 2737.32 1549.51 2737.84 1512.07 2738.36C1375.74 2739.92 1234.6 2741.99 1104.84 2699.2C925.759 2640.34 805.36 2507.83 730.489 2413.44C706.207 2382.84 678.89 2351.72 642.972 2330.46C606.043 2308.68 562.538 2301.41 528.897 2310.75L529.15 2311.01Z" fill="#3F3F3F"/>
<path d="M2286.57 3027.5C2272.16 3027.5 2250.91 3026.21 2233.71 3015.83C2215.25 3004.68 2203.36 2984.98 2199.56 2958.78C2183.63 2847.54 2275.7 2712.18 2359.42 2630.23C2481.59 2510.43 2681.41 2423.56 2953.07 2372.47C2977.1 2368.07 3004.16 2365.47 3024.4 2380.51C3045.14 2395.81 3050.2 2425.37 3037.05 2453.9C2983.93 2568.78 2744.9 2635.16 2697.6 2647.09C2669.27 2654.35 2640.18 2661.87 2621.72 2678.47C2614.38 2684.95 2611.6 2691.95 2612.61 2694.02C2613.37 2695.58 2616.91 2703.88 2651.06 2702.32C2687.74 2701.8 2725.17 2702.32 2762.61 2702.84C2896.16 2704.66 3034.26 2706.21 3158.71 2665.5C3328.94 2609.49 3444.53 2482.16 3516.62 2391.14C3542.93 2357.95 3573.03 2323.98 3614 2299.87C3660.04 2272.9 3713.41 2264.34 3756.91 2277.31C3761.47 2278.86 3772.09 2281.97 3778.16 2291.83C3785.24 2303.5 3780.94 2315.68 3779.17 2320.35C3759.95 2375.85 3721 2426.67 3683.56 2475.94L3663.32 2502.65C3642.08 2531.17 3623.11 2555.81 3612.23 2569.81L3604.14 2580.44C3559.11 2640.86 3513.08 2700.77 3466.54 2760.41C3460.72 2767.93 3454.9 2775.71 3449.34 2783.49C3418.48 2825.5 3386.36 2869.06 3327.67 2889.29C3289.48 2902.51 3249.01 2905.11 3209.8 2907.7C3141.26 2912.11 3076 2913.66 3012.76 2915.22C2966.73 2916.26 2920.44 2917.55 2874.41 2919.63C2754.01 2925.07 2663.71 2936.22 2581.25 2955.93C2549.13 2963.45 2516.75 2974.34 2485.13 2984.72C2421.9 3005.72 2356.64 3027.5 2286.83 3027.5H2286.32H2286.57ZM2984.18 2404.37C2975.84 2404.37 2966.73 2405.93 2959.14 2407.22C2694.31 2457.01 2500.56 2540.51 2383.45 2655.65C2299.47 2737.85 2220.81 2862.06 2233.96 2953.6C2236.24 2969.16 2242.06 2979.79 2251.16 2985.23C2261.28 2991.2 2277.22 2993.01 2286.83 2991.98C2351.07 2991.98 2413.8 2970.97 2474.51 2951.01C2506.63 2940.37 2540.02 2929.22 2573.41 2921.18C2657.89 2900.96 2750.47 2889.55 2872.89 2883.84C2919.18 2881.77 2965.72 2880.73 3012.01 2879.43C3074.99 2877.88 3139.99 2876.32 3203.48 2872.17C3244.46 2869.58 3282.9 2866.99 3316.54 2855.32C3365.11 2838.72 3392.43 2801.38 3421.51 2761.71C3427.33 2753.67 3433.4 2745.63 3439.22 2737.85C3485.51 2678.21 3531.29 2618.56 3576.31 2558.14L3584.91 2546.99C3595.54 2533.25 3614.25 2508.87 3635.5 2480.35L3655.99 2453.38C3691.4 2406.96 3728.08 2358.73 3745.78 2308.94C3710.88 2300.64 3667.62 2308.16 3631.2 2329.69C3595.28 2350.95 3567.71 2382.07 3543.68 2412.67C3468.81 2507.06 3348.41 2639.57 3169.33 2698.43C3039.58 2740.96 2898.44 2739.15 2762.1 2737.59C2724.67 2737.07 2687.74 2736.55 2651.31 2737.07C2627.28 2737.59 2592.88 2734.74 2580.74 2708.03C2572.65 2690.13 2579.23 2668.09 2598.2 2651.24C2622.98 2628.94 2657.64 2620.12 2688.5 2612.08C2812.18 2580.44 2969.26 2515.87 3005.18 2438.08C3008.97 2430.3 3012.51 2415.26 3003.41 2408.52C2998.6 2404.89 2991.52 2403.85 2983.93 2403.85L2984.18 2404.37Z" fill="#3F3F3F"/>
<path d="M493.233 4035.98V4018.34L528.138 4006.93C530.668 4006.16 532.691 4004.86 534.462 4003.04C535.979 4001.23 536.738 3998.64 536.738 3995.26V3740.36C536.738 3736.99 535.979 3734.39 534.209 3732.84C532.438 3731.28 530.415 3729.99 528.138 3729.21L493.233 3717.28V3700.16H745.666V3783.66H719.108L710.255 3737.51C709.749 3734.65 708.484 3732.58 706.967 3731.02C705.449 3729.47 703.173 3728.69 700.643 3728.69H584.291V3851.34H656.885C659.92 3851.34 662.196 3850.57 663.714 3849.01C664.979 3847.45 665.99 3845.38 666.749 3842.79L675.096 3805.19H696.343V3925.77H675.096L666.749 3888.69C666.243 3885.83 665.232 3883.76 663.714 3882.2C662.449 3880.65 660.173 3879.87 656.885 3879.87H584.291V3995.52C584.291 3998.89 585.05 4001.49 586.82 4003.3C588.591 4005.12 590.614 4006.41 593.144 4007.19L630.073 4018.6V4036.24H493.486L493.233 4035.98Z" fill="#3F3F3F"/>
<path d="M942.453 4035.98C909.065 4035.98 880.736 4028.98 857.465 4015.49C834.195 4001.75 816.489 3982.3 804.348 3957.15C792.207 3931.99 786.136 3902.17 786.136 3867.68C786.136 3835.27 792.46 3806.22 804.854 3781.07C817.248 3755.92 835.207 3736.21 858.73 3721.69C882.253 3707.42 910.077 3700.16 942.959 3700.16C978.623 3700.16 1007.71 3707.42 1030.73 3722.21C1053.75 3736.99 1070.95 3756.95 1082.08 3782.11C1093.2 3807.26 1099.02 3836.04 1099.02 3867.68C1099.02 3888.95 1095.99 3909.69 1089.92 3929.66C1083.85 3949.88 1074.49 3967.78 1062.09 3983.85C1049.45 3999.93 1033.26 4012.64 1013.53 4021.97C993.8 4031.31 970.023 4035.98 942.453 4035.98ZM946.5 4009.53C968.506 4009.53 987.223 4003.82 1002.15 3992.41C1017.07 3981 1028.2 3965.18 1035.79 3944.96C1043.12 3924.73 1046.92 3901.39 1046.92 3874.94C1046.92 3844.6 1042.87 3818.15 1035.03 3795.85C1027.19 3773.55 1015.05 3756.44 999.111 3744.25C983.176 3732.06 962.688 3726.1 938.153 3726.1C913.618 3726.1 895.659 3732.06 880.989 3744.25C866.318 3756.44 855.442 3772.51 848.612 3792.74C841.783 3812.97 838.242 3835.01 838.242 3859.38C838.242 3889.46 842.036 3915.65 849.877 3938.21C857.718 3960.78 869.606 3978.15 885.542 3990.86C901.477 4003.3 921.965 4009.79 946.5 4009.79V4009.53Z" fill="#3F3F3F"/>
<path d="M1309.22 4035.97C1281.65 4035.97 1258.63 4031.31 1240.16 4021.97C1221.7 4012.64 1207.79 4000.71 1198.43 3986.19C1189.07 3971.41 1184.52 3955.85 1184.52 3939.25V3739.32C1184.52 3735.95 1183.76 3733.61 1181.99 3732.06C1180.22 3730.5 1178.19 3729.21 1175.41 3728.17L1141.01 3716.5V3699.9H1275.32V3716.5L1240.67 3728.17C1238.14 3728.95 1236.12 3730.24 1234.6 3732.06C1232.83 3733.87 1232.07 3736.21 1232.07 3739.32V3916.17C1232.07 3924.47 1233.08 3933.8 1235.1 3943.66C1237.13 3953.51 1241.17 3963.11 1246.74 3972.18C1252.56 3981.26 1260.9 3988.52 1271.78 3994.22C1282.66 3999.93 1297.07 4002.78 1314.53 4002.78C1331.98 4002.78 1346.65 3999.93 1358.03 3993.97C1369.42 3988 1378.27 3980.74 1384.84 3971.66C1391.42 3962.59 1395.97 3953.25 1398.5 3943.4C1401.03 3933.55 1402.55 3924.73 1402.55 3916.69V3740.36C1402.55 3737.24 1401.79 3734.91 1400.02 3733.35C1398.25 3731.8 1396.48 3730.76 1394.2 3729.98L1359.55 3716.76V3700.16H1476.16V3716.76L1441.5 3729.98C1438.97 3731.02 1436.95 3732.06 1435.43 3733.61C1433.66 3735.17 1432.9 3737.5 1432.9 3740.61V3929.4C1432.9 3948.59 1428.86 3964.92 1420.51 3978.67C1412.16 3992.41 1401.79 4003.3 1388.89 4011.6C1375.99 4020.16 1362.59 4026.12 1348.17 4030.27C1333.75 4034.16 1320.6 4036.23 1308.46 4036.23L1309.22 4035.97Z" fill="#3F3F3F"/>
<path d="M1520.42 4034.67V4017.04L1555.33 4004.08C1557.85 4003.04 1559.88 4001.74 1561.65 4000.19C1563.17 3998.37 1563.93 3996.04 1563.93 3992.67V3740.09C1563.93 3736.72 1563.17 3734.39 1561.4 3732.57C1559.63 3730.76 1557.6 3729.46 1555.33 3728.68L1519.16 3716.5V3699.38H1611.98L1768.81 3930.43L1786.26 3960.51H1789.8V3740.61C1789.8 3737.24 1788.79 3734.91 1787.02 3733.61C1785.25 3732.05 1783.22 3731.02 1780.69 3729.98L1746.29 3716.5V3699.38H1863.15V3716.5L1828.5 3729.98C1826.48 3730.76 1824.45 3732.05 1822.68 3733.61C1820.66 3735.17 1819.65 3737.76 1819.65 3740.61V3982.55L1812.82 4036.75H1786.01L1615.52 3786.25L1598.07 3755.65H1594.53V3992.15C1594.53 3995.52 1595.54 3998.11 1597.31 3999.93C1599.08 4001.74 1601.11 4003.04 1603.13 4003.82L1637.28 4016.78V4034.42H1520.42V4034.67Z" fill="#3F3F3F"/>
<path d="M1908.43 4036.75V4019.12L1943.33 4007.71C1945.61 4006.93 1947.63 4005.64 1949.4 4003.82C1951.18 4002.01 1951.93 3999.41 1951.93 3996.04V3740.36C1951.93 3736.99 1951.18 3734.39 1949.4 3732.84C1947.63 3731.28 1945.61 3729.99 1943.33 3729.21L1908.43 3717.28V3700.16H2056.65C2069.55 3700.16 2083.46 3701.72 2098.13 3704.83C2112.8 3707.94 2127.22 3713.39 2141.64 3720.65C2156.06 3728.17 2168.96 3738.54 2180.59 3751.51C2192.23 3764.47 2201.59 3780.81 2208.67 3800C2215.75 3819.45 2219.29 3842.79 2219.29 3869.76C2219.29 3908.13 2211.96 3939.77 2197.29 3964.41C2182.62 3989.04 2162.89 4007.45 2138.1 4019.12C2113.31 4030.79 2085.99 4036.75 2055.89 4036.75H1908.68H1908.43ZM1999.23 3728.17V4008.49H2056.9C2094.59 4008.49 2122.42 3997.08 2140.12 3974C2157.83 3950.92 2166.68 3918.51 2166.68 3876.76C2166.68 3846.16 2161.62 3819.71 2151.5 3797.41C2141.39 3775.11 2126.97 3757.99 2108.5 3746.06C2090.04 3734.13 2068.29 3727.91 2043.25 3727.91H1999.74L1999.23 3728.17Z" fill="#3F3F3F"/>
<path d="M2240.54 4036.75V4019.38L2263.56 4009.01C2269.12 4006.41 2272.92 4002.26 2275.19 3996.3L2367.26 3755.14L2393.82 3699.9H2419.37L2533.44 3996.82C2534.46 3999.15 2535.97 4001.74 2537.74 4004.34C2539.51 4006.93 2541.79 4008.49 2544.07 4009.52L2568.1 4019.38V4036.75H2448.46V4019.38L2486.4 4005.89L2405.46 3793.77L2396.6 3762.4H2392.81L2303.52 4004.6L2341.97 4019.12V4036.49H2240.54V4036.75ZM2330.84 3920.32L2341.97 3888.17H2446.18L2457.31 3920.32H2331.09H2330.84Z" fill="#3F3F3F"/>
<path d="M2634.11 4036.75V4019.12L2671.55 4007.71C2674.33 4006.93 2676.35 4005.63 2677.87 4003.82C2679.39 4002 2680.15 3999.41 2680.15 3996.04V3728.17H2605.53C2603.25 3728.17 2600.98 3728.95 2599.21 3730.5C2597.44 3732.06 2596.17 3734.39 2595.92 3736.98L2586.81 3787.55H2560.25V3699.9H2847.09V3787.55H2820.53L2811.42 3736.98C2810.92 3733.87 2809.65 3731.54 2808.13 3730.24C2806.36 3728.95 2804.34 3728.17 2802.06 3728.17H2727.19V3996.04C2727.19 3999.41 2727.95 4002 2729.72 4003.82C2731.49 4005.63 2733.52 4006.93 2736.05 4007.71L2773.48 4019.12V4036.75H2633.86H2634.11Z" fill="#3F3F3F"/>
<path d="M2888.06 4036.75V4019.12L2924.74 4007.71C2927.52 4006.67 2929.55 4005.38 2931.06 4003.82C2932.58 4002.01 2933.34 3999.41 2933.34 3996.04V3740.36C2933.34 3736.99 2932.58 3734.39 2930.81 3732.84C2929.04 3731.28 2927.02 3729.99 2924.74 3729.21L2888.06 3717.28V3700.16H3025.92V3717.28L2989.49 3729.21C2987.22 3729.99 2984.94 3731.28 2983.17 3733.1C2981.4 3734.91 2980.64 3737.25 2980.64 3740.62V3996.3C2980.64 3999.67 2981.4 4002.27 2983.17 4004.08C2984.94 4005.9 2986.96 4007.19 2989.49 4007.97L3025.92 4019.38V4037.01H2888.06V4036.75Z" fill="#3F3F3F"/>
<path d="M3231.05 4035.98C3197.66 4035.98 3169.33 4028.98 3146.06 4015.49C3122.79 4001.75 3105.09 3982.3 3092.95 3957.15C3080.8 3931.99 3074.73 3902.17 3074.73 3867.68C3074.73 3835.27 3081.06 3806.22 3093.45 3781.07C3105.85 3755.92 3123.8 3736.21 3147.33 3721.69C3170.85 3707.42 3198.67 3700.16 3231.56 3700.16C3266.97 3700.16 3296.31 3707.42 3319.33 3722.21C3342.34 3736.99 3359.54 3756.95 3370.67 3782.11C3381.8 3807.26 3387.62 3836.04 3387.62 3867.68C3387.62 3888.95 3384.59 3909.69 3378.51 3929.66C3372.44 3949.88 3363.09 3967.78 3350.69 3983.85C3338.04 3999.93 3321.86 4012.64 3302.13 4021.97C3282.4 4031.31 3258.62 4035.98 3231.05 4035.98ZM3235.1 4009.53C3257.1 4009.53 3275.82 4003.82 3290.74 3992.41C3305.67 3981 3316.8 3965.18 3324.39 3944.96C3331.72 3924.73 3335.51 3901.39 3335.51 3874.94C3335.51 3844.6 3331.47 3818.15 3323.63 3795.85C3315.79 3773.55 3303.9 3756.44 3287.71 3744.25C3271.77 3732.06 3251.29 3726.1 3226.75 3726.1C3202.22 3726.1 3184.26 3732.06 3169.59 3744.25C3154.92 3756.44 3144.04 3772.51 3137.21 3792.74C3130.38 3812.97 3126.84 3835.01 3126.84 3859.38C3126.84 3889.46 3130.63 3915.65 3138.48 3938.21C3146.32 3960.78 3158.2 3978.15 3174.14 3990.86C3190.07 4003.3 3210.56 4009.79 3235.1 4009.79V4009.53Z" fill="#3F3F3F"/>
<path d="M3436.44 4036.5V4018.86L3471.34 4005.64C3473.87 4004.6 3475.9 4003.31 3477.67 4001.75C3479.44 4000.19 3479.94 3997.34 3479.94 3994.23V3740.36C3479.94 3736.99 3479.18 3734.66 3477.41 3732.84C3475.64 3731.03 3473.62 3729.73 3471.34 3728.95L3435.17 3716.76V3699.65H3528L3684.82 3931.99L3702.28 3962.33H3705.82V3741.4C3705.82 3738.03 3704.81 3735.69 3703.04 3734.14C3701.26 3732.58 3698.99 3731.54 3696.71 3730.51L3662.31 3716.76V3699.65H3779.17V3716.76L3744.52 3730.51C3742.49 3731.28 3740.72 3732.58 3738.7 3734.14C3736.68 3735.69 3735.66 3738.29 3735.66 3741.4V3984.64L3728.84 4039.09H3702.02L3531.54 3787.3L3514.09 3756.44H3510.55V3994.23C3510.55 3997.6 3511.56 4000.19 3513.33 4002.01C3515.1 4003.82 3517.13 4005.12 3519.15 4005.9L3553.3 4019.12V4036.76H3436.44V4036.5Z" fill="#3F3F3F"/>
<path d="M704.943 3492.71V3418.8C704.943 3415.95 704.184 3413.62 702.919 3412.06C701.402 3410.5 699.631 3409.47 697.608 3408.95L657.39 3398.06V3382.5H780.572V3398.06L754.772 3408.95C753.001 3409.73 751.231 3410.76 749.713 3412.32C747.943 3413.88 747.184 3415.95 747.184 3419.06V3454.07C747.184 3467.55 747.184 3478.96 747.184 3488.3C747.184 3497.63 747.437 3505.15 748.196 3510.86C733.525 3516.56 716.325 3521.75 696.343 3526.16C676.361 3530.57 656.631 3532.9 636.396 3532.9C610.849 3532.9 587.579 3526.68 566.332 3514.49C545.085 3502.3 527.885 3484.41 515.238 3460.55C502.591 3436.7 496.268 3407.91 496.268 3373.68C496.268 3339.45 502.591 3312.74 515.238 3288.63C527.885 3264.77 545.085 3246.1 566.838 3232.87C588.591 3219.65 613.379 3213.17 640.949 3213.17C653.596 3213.17 665.737 3213.68 676.867 3214.98C688.249 3216.28 699.378 3218.09 710.76 3220.43C722.143 3222.76 733.525 3225.61 745.666 3228.98V3307.04H721.637L714.049 3262.95C713.543 3260.62 712.531 3258.81 710.508 3257.51C708.484 3256.21 706.713 3255.17 704.943 3254.14C695.331 3249.47 684.455 3245.84 672.567 3243.25C660.678 3240.65 649.043 3239.1 637.155 3239.1C618.69 3239.1 602.249 3243.77 588.085 3252.84C573.92 3261.92 562.791 3275.92 554.95 3294.33C547.109 3312.74 543.061 3336.08 543.061 3364.61C543.061 3393.13 547.109 3416.99 555.203 3438.51C563.297 3459.77 575.185 3476.63 590.614 3488.56C606.043 3500.75 624.761 3506.71 646.514 3506.71C655.62 3506.71 663.967 3505.93 671.808 3504.12C679.649 3502.3 686.225 3500.49 692.043 3498.15C697.861 3495.82 702.16 3494.26 705.196 3492.71H704.943Z" fill="#3F3F3F"/>
<path d="M880.482 3530.06C867.33 3530.06 856.2 3526.94 846.841 3520.98C837.483 3514.76 830.4 3506.98 825.342 3497.12C820.283 3487.27 817.753 3476.9 817.753 3465.74C817.753 3451.22 821.295 3438.78 828.124 3428.66C834.953 3418.55 843.806 3410.51 854.683 3404.55C865.559 3398.58 876.941 3394.17 889.082 3391.32C901.223 3388.73 912.353 3387.17 922.47 3387.17C924.494 3387.17 927.782 3387.17 932.335 3387.95C936.888 3388.47 941.441 3388.73 945.994 3389.25C950.547 3389.77 953.835 3390.03 955.605 3390.54V3358.91C955.858 3342.83 952.317 3331.68 944.476 3325.72C936.888 3319.49 927.023 3316.64 914.882 3316.64C908.053 3316.64 900.97 3317.94 894.141 3320.27C887.312 3322.86 880.482 3325.97 874.159 3329.6C867.835 3333.24 862.018 3337.12 856.706 3341.01C851.394 3344.9 846.841 3348.02 843.047 3350.61H834.953L833.436 3309.12C841.277 3306.01 849.371 3302.9 857.465 3300.04C865.559 3297.19 874.665 3294.6 884.276 3292.78C893.888 3290.97 905.017 3289.93 917.159 3289.93C930.311 3289.93 942.958 3292 955.1 3295.89C967.241 3300.04 977.105 3307.3 984.694 3317.94C992.535 3328.57 996.076 3343.61 996.076 3363.58L995.57 3482.08C995.57 3487.27 997.593 3491.68 1001.64 3495.05C1005.69 3498.42 1009.99 3499.97 1015.05 3499.97C1017.83 3499.97 1020.86 3499.2 1024.66 3497.9C1028.45 3496.6 1031.74 3495.05 1034.78 3493.49H1038.06V3511.38C1035.53 3513.46 1031.74 3515.79 1026.68 3518.9C1021.62 3522.02 1016.56 3524.61 1011.25 3526.68C1005.94 3529.02 1000.88 3530.06 996.582 3530.06C983.935 3530.06 974.323 3526.94 967.999 3520.72C961.676 3514.5 958.641 3504.64 958.641 3491.42H956.111C948.776 3502.57 940.429 3510.87 931.323 3516.31C922.217 3521.76 913.112 3525.65 904.259 3527.46C895.406 3529.28 887.312 3530.31 880.229 3530.31L880.482 3530.06ZM900.465 3499.46C909.317 3499.46 919.182 3497.64 930.311 3493.49C941.441 3489.6 949.788 3483.38 955.858 3474.82V3410.51C937.141 3410.51 920.447 3411.81 906.282 3414.14C892.118 3416.48 880.988 3421.4 873.147 3428.14C865.306 3434.89 861.259 3445 861.259 3458.22C861.259 3468.86 863.283 3477.16 867.33 3483.12C871.377 3489.08 876.435 3493.23 882.506 3495.83C888.576 3498.16 894.647 3499.46 900.465 3499.46Z" fill="#3F3F3F"/>
<path d="M1054.76 3525.64V3510.08L1085.36 3501.52C1087.64 3500.75 1089.66 3499.71 1091.18 3497.89C1092.7 3496.08 1093.46 3494 1093.46 3490.89V3238.06C1093.46 3234.95 1092.45 3232.62 1090.68 3230.8C1088.91 3228.98 1086.88 3227.69 1084.35 3226.65L1052.99 3214.46V3199.42L1133.68 3195.53V3490.89C1133.68 3494 1134.43 3496.08 1136.21 3497.89C1137.98 3499.45 1139.75 3500.75 1142.02 3501.52L1171.62 3510.08V3525.64H1054.51H1054.76Z" fill="#3F3F3F"/>
<path d="M1342.35 3513.46L1341.09 3431.77H1365.12L1373.72 3475.86C1374.22 3477.93 1375.49 3479.75 1377.51 3481.82C1379.53 3483.9 1381.3 3485.45 1382.82 3486.49C1387.88 3489.86 1393.44 3493.23 1399.77 3496.34C1405.84 3499.46 1412.42 3502.05 1419.24 3503.86C1426.07 3505.68 1433.16 3506.72 1440.24 3506.72C1461.23 3506.72 1477.93 3501.79 1490.07 3492.2C1502.21 3482.6 1508.03 3469.38 1508.03 3452.52C1508.03 3439.81 1504.49 3429.44 1497.15 3421.14C1490.07 3412.84 1480.46 3406.1 1468.31 3400.92C1456.68 3395.73 1445.3 3391.32 1433.91 3387.69C1422.53 3384.06 1411.66 3379.91 1400.78 3375.24C1384.34 3368.24 1371.44 3358.13 1362.33 3345.16C1352.97 3332.2 1348.42 3316.64 1348.42 3298.23C1348.42 3281.63 1352.72 3267.11 1361.57 3254.14C1370.17 3241.18 1382.06 3231.07 1396.99 3223.55C1411.91 3216.02 1428.6 3212.39 1446.81 3212.39C1457.94 3212.39 1468.57 3213.17 1478.69 3214.47C1488.8 3216.02 1498.41 3217.58 1507.52 3219.91C1516.63 3221.99 1525.23 3224.32 1533.57 3226.4V3304.71H1509.8L1501.7 3262.96C1501.2 3260.89 1500.19 3259.07 1498.16 3257C1496.14 3255.18 1494.37 3253.63 1492.6 3252.33C1489.56 3250 1485.77 3247.66 1481.21 3245.59C1476.66 3243.51 1471.6 3241.96 1466.04 3240.66C1460.47 3239.36 1454.66 3238.84 1448.08 3238.84C1428.86 3238.84 1413.93 3242.99 1403.31 3251.55C1392.69 3260.11 1387.37 3270.48 1387.37 3282.93C1387.37 3294.08 1390.16 3304.45 1395.97 3314.05C1401.79 3323.64 1412.67 3331.68 1429.11 3338.16C1439.99 3342.31 1450.61 3346.2 1460.98 3349.83C1471.35 3353.46 1482.73 3358.13 1495.13 3363.58C1504.23 3367.47 1512.83 3372.65 1521.18 3379.13C1529.53 3385.62 1536.36 3393.66 1541.67 3403.77C1546.98 3413.88 1549.76 3426.33 1549.76 3441.11C1549.76 3455.89 1545.97 3471.45 1538.13 3485.45C1530.29 3499.46 1518.14 3510.87 1501.7 3519.68C1485.01 3528.5 1463.26 3532.91 1436.44 3532.91C1427.09 3532.91 1417.22 3531.87 1406.85 3529.8C1396.48 3527.72 1385.86 3525.39 1374.98 3522.28C1364.1 3519.16 1353.48 3516.31 1342.86 3513.2L1342.35 3513.46Z" fill="#3F3F3F"/>
<path d="M1696.47 3530.57C1676.74 3530.57 1659.03 3526.16 1643.35 3517.09C1627.41 3508.01 1615.02 3494.79 1605.91 3477.15C1596.81 3459.52 1592 3438 1592 3412.33C1592 3389.51 1596.56 3368.76 1605.41 3350.35C1614.26 3331.94 1626.65 3317.42 1642.34 3306.52C1658.02 3295.63 1676.48 3290.45 1697.22 3290.45C1716.45 3290.45 1732.89 3294.6 1746.55 3302.89C1760.21 3311.19 1770.58 3322.34 1777.91 3336.09C1785.25 3349.83 1788.79 3364.87 1788.79 3381.21C1788.79 3383.02 1788.79 3385.36 1788.79 3388.47C1788.79 3391.58 1788.54 3394.17 1788.28 3397.03C1788.28 3399.88 1787.78 3402.21 1787.27 3404.29H1631.71L1632.98 3382.24H1745.79C1745.79 3368.24 1744.02 3356.31 1740.73 3345.94C1737.44 3335.83 1732.13 3327.79 1724.8 3322.08C1717.46 3316.38 1707.6 3313.79 1695.2 3313.79C1682.81 3313.79 1673.45 3316.38 1665.61 3321.82C1657.77 3327.27 1651.44 3334.27 1647.14 3343.09C1642.59 3351.9 1639.3 3361.5 1637.53 3371.87C1635.76 3382.24 1634.75 3392.62 1634.75 3402.73C1634.75 3420.88 1637.28 3436.96 1642.08 3451.48C1646.89 3466 1655.24 3477.41 1666.37 3485.97C1677.5 3494.53 1692.67 3498.68 1711.64 3498.68C1722.01 3498.68 1731.88 3497.12 1740.98 3494.01C1750.09 3490.9 1758.18 3487.01 1765.27 3482.6C1772.35 3478.19 1778.42 3474.04 1782.97 3470.41H1788.54V3495.05C1778.42 3503.6 1765.27 3511.9 1749.08 3519.68C1732.89 3527.46 1715.69 3531.09 1697.22 3531.09L1696.47 3530.57Z" fill="#3F3F3F"/>
<path d="M1828.75 3525.65V3510.09L1853.54 3501.53C1856.07 3500.75 1857.84 3499.71 1859.36 3497.9C1860.88 3496.34 1861.64 3494.01 1861.64 3490.9V3340.24C1861.64 3337.12 1860.88 3334.79 1859.11 3332.97C1857.59 3331.42 1855.31 3329.86 1852.53 3328.83L1828.75 3318.45V3303.41L1898.06 3291.74V3328.31H1900.59C1908.68 3317.16 1916.78 3308.86 1924.87 3303.67C1932.96 3298.23 1940.81 3294.6 1948.65 3293.04C1956.49 3291.23 1964.33 3290.45 1971.92 3290.45C1984.82 3290.45 1996.45 3293.04 2007.08 3298.49C2017.7 3303.93 2026.05 3312.23 2032.37 3323.64C2038.69 3335.05 2041.73 3349.83 2041.73 3367.98V3490.64C2041.73 3494.01 2042.49 3496.6 2044.01 3498.42C2045.52 3500.23 2047.55 3501.27 2049.82 3502.05L2071.83 3510.61V3526.16H1972.17V3510.61L1992.91 3502.05C1995.44 3501.01 1997.46 3499.71 1998.98 3498.16C2000.5 3496.6 2001.51 3494.01 2001.51 3490.64V3386.39C2001.51 3372.91 2000.25 3361.5 1997.97 3352.16C1995.69 3342.83 1991.14 3335.57 1984.31 3330.38C1977.48 3325.45 1967.36 3322.86 1953.96 3322.86C1945.11 3322.86 1935.75 3324.42 1926.14 3327.53C1916.52 3330.64 1908.18 3336.35 1901.6 3344.9V3491.42C1901.6 3494.53 1902.36 3496.6 1904.13 3498.42C1905.9 3499.97 1907.67 3501.27 1909.95 3502.05L1928.92 3510.61V3526.16H1828.5L1828.75 3525.65Z" fill="#3F3F3F"/>
<path d="M2103.95 3525.64V3510.08L2134.56 3501.52C2137.09 3500.75 2138.86 3499.71 2140.63 3497.89C2142.15 3496.34 2142.9 3494 2142.9 3490.89V3342.3C2142.9 3339.19 2142.15 3336.86 2140.38 3335.04C2138.61 3333.23 2136.58 3332.19 2133.8 3331.15L2104.21 3320.78V3305.48L2183.38 3294.07V3491.15C2183.38 3494.26 2184.13 3496.6 2185.65 3498.15C2187.17 3499.97 2188.94 3501.01 2191.22 3501.52L2221.57 3510.08V3525.64H2103.7H2103.95ZM2150.75 3251.03C2145.69 3251.03 2140.88 3249.99 2136.33 3247.65C2131.78 3245.32 2128.23 3242.21 2125.45 3238.06C2122.67 3233.91 2121.41 3228.98 2121.41 3223.28C2121.41 3214.2 2124.19 3207.2 2130 3202.27C2135.82 3197.35 2142.65 3195.01 2150.49 3195.01C2159.6 3195.01 2166.93 3197.35 2172.5 3201.76C2178.06 3206.42 2180.85 3212.91 2180.85 3221.72C2180.85 3227.95 2179.58 3233.13 2176.8 3237.54C2174.27 3241.95 2170.48 3245.32 2165.92 3247.65C2161.37 3249.99 2156.06 3251.28 2150.24 3251.28L2150.75 3251.03Z" fill="#3F3F3F"/>
<path d="M2352.09 3530.83C2331.09 3530.83 2312.63 3525.9 2296.69 3516.31C2280.76 3506.71 2268.62 3492.71 2259.76 3474.82C2250.91 3456.92 2246.61 3435.66 2246.61 3410.77C2246.61 3387.95 2250.91 3367.2 2259.76 3349.05C2268.36 3330.9 2280.76 3316.38 2296.94 3305.74C2313.13 3295.11 2332.1 3289.67 2354.11 3289.67C2378.14 3289.67 2397.87 3295.37 2413.3 3306.52C2428.73 3317.67 2440.36 3332.45 2447.95 3350.61C2455.54 3368.76 2459.33 3388.46 2459.33 3409.99C2459.33 3432.55 2455.03 3452.78 2446.43 3471.19C2437.83 3489.34 2425.44 3503.86 2409.25 3514.75C2393.06 3525.38 2374.09 3530.83 2351.83 3530.83H2352.09ZM2363.97 3507.49C2375.86 3507.49 2385.47 3504.64 2393.31 3498.93C2401.16 3493.23 2407.23 3485.71 2411.78 3476.63C2416.33 3467.3 2419.62 3457.44 2421.39 3446.55C2423.16 3435.66 2424.17 3425.03 2424.17 3414.66C2424.17 3397.8 2422.15 3381.46 2417.85 3365.9C2413.55 3350.35 2406.97 3337.64 2397.61 3328.04C2388.26 3318.45 2375.86 3313.26 2360.18 3313.26C2348.54 3313.26 2338.93 3316.12 2331.09 3321.56C2323.5 3327.27 2317.18 3334.53 2312.63 3343.86C2308.07 3353.2 2304.79 3363.05 2303.02 3373.94C2300.99 3384.83 2299.98 3395.21 2299.98 3405.58C2299.98 3416.99 2300.99 3428.92 2303.02 3440.85C2305.04 3452.78 2308.58 3463.93 2313.39 3473.78C2318.19 3483.89 2324.77 3491.93 2332.86 3498.41C2340.96 3504.9 2351.33 3507.75 2363.72 3507.75L2363.97 3507.49Z" fill="#3F3F3F"/>
<path d="M2508.65 3525.64V3510.08L2533.7 3501.53C2535.97 3500.75 2538 3499.71 2539.51 3497.89C2541.03 3496.34 2541.79 3494.01 2541.79 3490.89V3342.82C2541.79 3339.19 2540.78 3336.34 2538.75 3334.27C2536.73 3332.19 2534.71 3330.64 2532.43 3329.6L2507.14 3318.45V3303.41L2578.97 3291.74V3341.53H2581C2589.34 3329.08 2596.93 3319.23 2604.01 3311.71C2611.1 3304.19 2618.43 3298.74 2625.51 3295.37C2632.6 3292 2639.93 3290.18 2647.52 3290.18C2654.1 3290.18 2660.67 3290.96 2667.5 3292.52C2674.33 3294.07 2680.15 3297.44 2685.46 3302.37V3355.53H2660.67L2654.85 3339.19C2653.59 3335.56 2650.55 3332.71 2646 3330.64C2641.45 3328.56 2636.9 3327.53 2632.6 3327.53C2624.75 3327.53 2617.92 3329.34 2612.11 3332.97C2606.04 3336.6 2600.72 3341.01 2595.92 3346.46C2591.11 3351.9 2586.56 3357.35 2582.26 3362.53V3491.15C2582.26 3496.6 2585.04 3500.23 2590.35 3501.53L2621.72 3510.08V3525.64H2508.65Z" fill="#3F3F3F"/>
<path d="M3088.39 3457.44H3098.76V3485.71C3090.92 3492.45 3081.56 3499.45 3070.43 3506.71C3059.56 3513.97 3047.42 3519.94 3034.26 3524.86C3021.11 3529.79 3007.45 3532.12 2992.78 3532.12C2963.95 3532.12 2938.65 3525.9 2917.15 3513.45C2895.65 3501.01 2878.71 3482.85 2866.82 3459.26C2854.93 3435.4 2848.86 3406.87 2848.86 3373.16C2848.86 3339.45 2855.18 3312.48 2867.58 3288.63C2879.97 3264.51 2897.17 3246.1 2918.92 3232.87C2940.68 3219.65 2965.46 3213.17 2993.29 3213.17C3003.4 3213.17 3014.28 3213.94 3026.68 3215.76C3039.07 3217.57 3050.7 3219.65 3062.34 3221.98C3073.97 3224.32 3083.59 3226.65 3091.43 3228.72V3306.78H3067.65L3059.81 3262.95C3059.3 3260.62 3058.29 3258.81 3056.27 3257.25C3054.25 3255.69 3051.97 3254.4 3049.69 3253.1C3041.09 3248.43 3031.99 3245.06 3022.12 3242.47C3012.26 3239.88 3001.38 3238.84 2989.75 3238.84C2961.92 3238.84 2939.41 3249.21 2921.96 3269.7C2904.51 3290.18 2895.65 3321.56 2895.65 3363.57C2895.65 3408.17 2905.01 3441.62 2923.73 3464.44C2942.45 3487.26 2969.51 3498.41 3004.67 3498.41C3016.56 3498.41 3026.93 3496.6 3036.29 3492.71C3045.65 3488.82 3054.5 3483.89 3062.59 3477.67C3070.69 3471.44 3079.29 3464.7 3087.89 3457.18L3088.39 3457.44Z" fill="#3F3F3F"/>
<path d="M3202.72 3530.06C3189.57 3530.06 3178.44 3526.94 3169.08 3520.98C3159.72 3514.76 3152.64 3506.98 3147.58 3497.12C3142.52 3487.27 3139.99 3476.9 3139.99 3465.74C3139.99 3451.22 3143.53 3438.78 3150.36 3428.66C3157.19 3418.55 3166.05 3410.51 3176.92 3404.55C3187.8 3398.58 3199.18 3394.17 3211.32 3391.32C3223.46 3388.73 3234.59 3387.17 3244.71 3387.17C3246.73 3387.17 3250.02 3387.17 3254.57 3387.95C3259.13 3388.73 3263.68 3388.73 3268.23 3389.25C3272.79 3389.77 3276.07 3390.03 3277.84 3390.54V3358.91C3278.1 3342.83 3274.3 3331.68 3266.72 3325.72C3259.13 3319.75 3249.26 3316.64 3237.12 3316.64C3230.29 3316.64 3223.21 3317.94 3216.38 3320.27C3209.55 3322.86 3202.72 3325.97 3196.4 3329.6C3190.07 3333.49 3184.26 3337.12 3178.95 3341.01C3173.63 3344.9 3169.08 3348.02 3165.29 3350.61H3157.19L3155.67 3309.12C3163.52 3306.01 3171.61 3302.9 3179.7 3300.04C3187.8 3297.19 3196.9 3294.6 3206.52 3292.78C3216.13 3290.97 3227.26 3289.93 3239.4 3289.93C3252.55 3289.93 3265.2 3292 3277.34 3295.89C3289.48 3299.78 3299.34 3307.3 3306.93 3317.94C3314.77 3328.57 3318.31 3343.61 3318.31 3363.58L3317.81 3482.08C3317.81 3487.27 3319.83 3491.68 3323.88 3495.05C3327.93 3498.42 3332.23 3499.97 3337.29 3499.97C3340.07 3499.97 3343.1 3499.2 3346.9 3497.9C3350.69 3496.6 3353.98 3495.05 3357.27 3493.49H3360.56V3511.38C3358.03 3513.46 3354.23 3515.79 3349.17 3518.9C3344.37 3522.02 3339.06 3524.61 3333.74 3526.68C3328.43 3529.02 3323.37 3530.06 3319.07 3530.06C3306.43 3530.06 3296.81 3526.94 3290.49 3520.72C3284.17 3514.5 3281.13 3504.64 3281.13 3491.42H3278.35C3271.02 3502.57 3262.67 3510.87 3253.56 3516.31C3244.46 3521.76 3235.35 3525.65 3226.5 3527.46C3217.64 3529.28 3209.55 3530.31 3202.47 3530.31L3202.72 3530.06ZM3212.59 3499.46C3221.44 3499.46 3231.3 3497.64 3242.18 3493.49C3253.06 3489.34 3261.66 3483.38 3267.73 3474.82V3410.51C3249.01 3410.51 3232.32 3411.81 3218.15 3414.14C3203.99 3416.73 3192.86 3421.4 3185.02 3428.14C3177.17 3434.89 3173.13 3445 3173.13 3458.22C3173.13 3468.86 3175.15 3477.16 3179.2 3483.12C3183.25 3489.08 3188.3 3493.23 3194.37 3495.83C3200.45 3498.16 3206.52 3499.46 3212.33 3499.46H3212.59Z" fill="#3F3F3F"/>
<path d="M3383.07 3525.64V3510.08L3408.11 3501.53C3410.38 3500.75 3412.41 3499.71 3413.93 3497.89C3415.44 3496.08 3416.2 3494.01 3416.2 3490.89V3342.82C3416.2 3339.19 3415.19 3336.34 3413.17 3334.27C3411.14 3332.19 3409.12 3330.64 3406.84 3329.6L3381.55 3318.45V3303.41L3453.38 3291.74V3341.53H3455.41C3463.75 3329.08 3471.34 3319.23 3478.43 3311.71C3485.51 3304.19 3492.84 3298.74 3499.92 3295.37C3507.01 3292 3514.34 3290.18 3521.93 3290.18C3528.51 3290.18 3535.08 3290.96 3541.91 3292.52C3548.74 3294.07 3554.56 3297.44 3559.87 3302.37V3355.53H3535.08L3529.27 3339.19C3528 3335.56 3524.97 3332.71 3520.41 3330.64C3515.86 3328.56 3511.31 3327.53 3507.01 3327.53C3499.42 3327.53 3492.34 3329.34 3486.52 3332.97C3480.45 3336.6 3475.14 3341.01 3470.33 3346.46C3465.53 3351.9 3460.97 3357.35 3456.67 3362.53V3491.15C3456.67 3496.6 3459.45 3500.23 3464.77 3501.53L3496.13 3510.08V3525.64H3383.07Z" fill="#3F3F3F"/>
<path d="M3690.39 3530.57C3670.66 3530.57 3652.95 3526.16 3637.27 3517.09C3621.34 3508.01 3608.94 3494.79 3599.84 3477.15C3590.73 3459.52 3585.92 3438 3585.92 3412.33C3585.92 3389.51 3590.48 3368.76 3599.33 3350.35C3608.18 3331.94 3620.58 3317.42 3636.26 3306.52C3651.94 3295.63 3670.41 3290.45 3691.15 3290.45C3710.37 3290.45 3726.81 3294.6 3740.47 3302.89C3754.13 3311.19 3764.5 3322.34 3771.84 3336.09C3779.17 3349.83 3782.71 3364.87 3782.71 3381.21C3782.71 3383.02 3782.71 3385.36 3782.71 3388.47C3782.71 3391.58 3782.46 3394.17 3782.21 3397.03C3782.21 3399.88 3781.7 3402.21 3781.19 3404.29H3625.64L3626.9 3382.24H3739.71C3739.71 3368.24 3737.94 3356.31 3734.65 3345.94C3731.36 3335.83 3726.05 3327.79 3718.72 3322.08C3711.38 3316.38 3701.52 3313.79 3689.12 3313.79C3676.73 3313.79 3667.37 3316.38 3659.53 3321.82C3651.69 3327.27 3645.37 3334.27 3641.07 3343.09C3636.77 3351.9 3633.22 3361.5 3631.45 3371.87C3629.43 3382.24 3628.67 3392.62 3628.67 3402.73C3628.67 3420.88 3631.2 3436.96 3636.01 3451.48C3640.81 3466 3649.16 3477.41 3660.29 3485.97C3671.42 3494.53 3686.59 3498.68 3705.57 3498.68C3715.94 3498.68 3725.8 3497.12 3734.91 3494.01C3744.01 3490.9 3752.11 3487.01 3759.19 3482.6C3766.27 3478.19 3772.34 3474.04 3776.89 3470.41H3782.71V3495.05C3772.59 3503.6 3759.44 3511.9 3743.25 3519.68C3727.07 3527.46 3709.87 3531.09 3691.4 3531.09L3690.39 3530.57Z" fill="#3F3F3F"/>
</g>
<defs>
<clipPath id="clip0_219_56">
<rect width="4274.43" height="4038.83" fill="white"/>
</clipPath>
</defs>
</svg>
