<svg width="82" height="82" viewBox="0 0 82 82" fill="none" xmlns="http://www.w3.org/2000/svg">
<path d="M26.5598 26.5593C27.3287 25.7907 28.3713 25.3589 29.4585 25.3589C30.5457 25.3589 31.5883 25.7907 32.3572 26.5593L41.1886 35.3866L50.0159 26.5593C50.3941 26.1677 50.8465 25.8554 51.3467 25.6405C51.847 25.4256 52.385 25.3125 52.9294 25.3078C53.4737 25.303 54.0136 25.4068 54.5175 25.6129C55.0214 25.8191 55.4792 26.1235 55.8641 26.5085C56.2491 26.8934 56.5535 27.3512 56.7597 27.8551C56.9658 28.359 57.0696 28.8988 57.0648 29.4432C57.0601 29.9876 56.947 30.5256 56.7321 31.0259C56.5172 31.5261 56.2049 31.9785 55.8133 32.3567L46.986 41.1881L55.8133 50.0154C56.5601 50.7887 56.9734 51.8243 56.9641 52.8993C56.9547 53.9743 56.5235 55.0027 55.7634 55.7629C55.0032 56.523 53.9749 56.9542 52.8998 56.9636C51.8248 56.9729 50.7892 56.5596 50.0159 55.8128L41.1886 46.9855L32.3572 55.8128C31.581 56.5417 30.5516 56.9401 29.4869 56.9235C28.4222 56.907 27.4057 56.4769 26.6524 55.7242C25.8992 54.9715 25.4684 53.9553 25.4511 52.8906C25.4338 51.8259 25.8314 50.7962 26.5598 50.0195L35.3871 41.1922L26.5598 32.3608C25.7912 31.5919 25.3594 30.5493 25.3594 29.4621C25.3594 28.3749 25.7912 27.3323 26.5598 26.5634" fill="#FF0000"/>
<path fill-rule="evenodd" clip-rule="evenodd" d="M41 0C18.3557 0 0 18.3557 0 41C0 63.6443 18.3557 82 41 82C63.6443 82 82 63.6443 82 41C82 18.3557 63.6443 0 41 0ZM8.2 41C8.2 32.3009 11.6557 23.9581 17.8069 17.8069C23.9581 11.6557 32.3009 8.2 41 8.2C49.6991 8.2 58.0419 11.6557 64.1931 17.8069C70.3443 23.9581 73.8 32.3009 73.8 41C73.8 49.6991 70.3443 58.0419 64.1931 64.1931C58.0419 70.3443 49.6991 73.8 41 73.8C32.3009 73.8 23.9581 70.3443 17.8069 64.1931C11.6557 58.0419 8.2 49.6991 8.2 41Z" fill="#FF0000"/>
</svg>
