<svg width="35" height="32" viewBox="0 0 35 32" fill="none" xmlns="http://www.w3.org/2000/svg">
<path d="M21 8.53949C17.1128 7.16785 14.9243 5.59972 11 1.03949" stroke="#0078E8" stroke-width="2.5"/>
<path d="M12.7064 7.65833C9.68477 10.5681 7.27889 11.8224 1.41699 13.2278" stroke="#0078E8" stroke-width="2.5"/>
<path d="M7.70587 15.0395C8.43733 19.1702 8.13757 21.8668 6.03674 27.5168" stroke="#0078E8" stroke-width="2.5"/>
<path d="M11.4149 23.0395C15.3407 24.5178 17.507 26.1514 21.2946 30.8409" stroke="#0078E8" stroke-width="2.5"/>
<path d="M21 24.0324C24.1645 21.2786 26.6305 20.1472 32.5558 19.0391" stroke="#0078E8" stroke-width="2.5"/>
<path d="M25.5959 16.8406C24.7249 12.4774 24.9331 9.60103 26.8412 3.52112" stroke="#0078E8" stroke-width="2.5"/>
<path d="M12.5 1.53949C10.6085 2.83921 9.42195 3.50447 7 4.53949L7.5 7.53949" stroke="#0078E8" stroke-width="2.5"/>
<path d="M2.55712 12.0908C2.82841 14.4559 2.86573 15.8672 2.65604 18.592L5.54455 19.5801" stroke="#0078E8" stroke-width="2.5"/>
<path d="M5.72846 25.9365C7.84325 27.0297 9.0357 27.7854 11.181 29.4783L13.6115 27.631" stroke="#0078E8" stroke-width="2.5"/>
<path d="M19.7782 30.2998C21.7973 29.0387 23.0556 28.3987 25.6062 27.4174L25.2574 24.3845" stroke="#0078E8" stroke-width="2.5"/>
<path d="M31.3599 20.1169C31.2081 17.7412 31.242 16.3298 31.5888 13.6191L28.7537 12.4866" stroke="#0078E8" stroke-width="2.5"/>
<path d="M27.2029 5.18926C25.0523 4.10382 23.8349 3.34375 21.6334 1.622L19.2669 3.67267" stroke="#0078E8" stroke-width="2.5"/>
</svg>
